<?xml version="1.0" encoding="UTF-8"?><svg xmlns="http://www.w3.org/2000/svg" viewBox="0 0 1803.96 1341.93"><defs><style>.d{fill:#fff;}</style></defs><g id="a"/><g id="b"><g id="c"><g><path class="d" d="M933.32,599.96c-148.77,2.39-300.35-116.46-299.9-300.62C633.86,119.7,780.67-.73,935.09,0c151.2,.72,297.98,119.37,298.33,299.55,.37,185.51-152.93,303.06-300.1,300.4Zm270.85-315.86c6.1-50.09-27.65-132.53-66.56-161.22-20.22,10.64-40.8,21.48-62.27,32.78,4.18,22.24,8.74,43.13,11.89,64.23,3.27,21.91,2.82,44.41,9.02,65.38,33.9,4.4,85.79,3.73,107.92-1.18Zm-412.66-128.86c-22.45-11.55-43.25-22.25-63.64-32.74-41.7,37.52-73.84,119.91-63.73,164.33,35.22,1.73,70.78,1.94,108.01-.09,2.6-23,4.45-44.29,7.55-65.4,3.12-21.19,7.48-42.2,11.81-66.1Zm349.1,323.67c27.81-28.94,44.29-61.69,55.39-97.31,6.6-21.19,13.24-42.65,9.03-66.91-37.37-2.28-72.9-2.24-109.81-.28-4.48,22.9-5.43,44.33-7.78,65.56-2.45,22.11-10.6,43.45-10.51,66.16,21.16,10.89,41.16,21.18,63.68,32.77Zm-350.07-33.04c-6.71-45.06-12.99-87.23-19.23-129.08-29.19-5.35-88.02-4.9-111.65,1.17,2.98,61.16,25.48,114.09,65.76,161.26,22.49-11.52,43.26-22.16,65.11-33.35Zm29.99-280.03c-14.5,32.58-22.66,87.53-18.06,118.28,24.94,5.52,92.02,5.34,115.63-.31,5.13-29.25,4.38-82.49-1.48-103.07-32.17-4.99-64.39-9.99-96.09-14.9Zm126.36,117.9c30.89,6.25,97.17,5.65,119.76-.95-1.04-39.41-4.21-78.72-18.33-117.38-34.19,5.39-66.42,10.48-101.19,15.96-1.9,33.62-1.68,67.15-.25,102.37Zm-28.7,135.72c4.55-31.2,4.13-79.39-.7-102.88-2.53-.9-5.32-2.74-8.12-2.76-32.88-.21-65.76-.3-98.63,.04-3.59,.04-7.15,2.96-11.59,4.94,3.28,39.48,5.22,78.25,19.59,116.32,33.36-5.26,65.54-10.33,99.46-15.67Zm148.34-102.96c-39.03-5.91-98.79-4.58-118.14,2.05-3.93,31.31-3.41,78.04,1.4,101.74,15.71,2.05,31.85,4.83,48.1,6.11,17,1.34,33.04,10.57,51.23,7.37,12.49-38.36,17.04-76.6,17.4-117.27Zm-148.9,131.19c-8.62,.39-15.73,.13-22.66,1.14-17.18,2.49-34.35,5.15-51.34,8.62-5.41,1.11-10.26,4.98-16.16,8,13.09,35.68,29.91,66.82,58.14,90.54,9.2,7.73,18.95,15.5,32.31,14.16,4.51-25.22,4.56-92.97-.28-122.46Zm1.23-417.6c-14.77-.42-23.73,6.71-32.38,13.61-21.25,16.95-35.86,39.13-47.27,63.42-4.59,9.75-12.17,19.08-8.65,30.95,33.67,11.63,63.1,15.77,86.95,12.38,4.68-21.62,5.51-84.3,1.35-120.36Zm31.66,123.9c29.25-3.26,59.16-3.65,89.07-17.42-11.47-33.94-27.26-63.08-52.13-86.73-6.58-6.26-14.35-11.6-22.34-15.95-4.77-2.59-11.04-2.44-16.77-3.55-4.19,36.4-3.35,98.56,2.16,123.65Zm.12,294.01c-6.28,23.94-6.42,98.37-.22,123.13,19.43-2.76,33.1-14.92,45.04-28.7,19.96-23.04,36.21-48.33,42.83-79.82-29.7-11.1-58.48-14.62-87.65-14.6Zm-204.49,52.32c27.86,26.8,56.52,44.18,88.55,56.13,2.92,1.09,6.67-.04,10.5-.15-15.85-28.61-30.63-55.28-45.98-82.98-19.2,3.37-35.23,13.06-53.07,27ZM1018.71,39.1c18.31,32.84,33.6,60.26,49.3,88.42,19.01-4.23,35.18-13.74,52.34-26.58-28.15-29.6-60.49-47.33-101.64-61.84Zm-271.39,63.84c17.88,10.58,32.99,20.93,52.86,24.91,7.01-14.19,13.28-28.11,20.63-41.43,7.75-14.05,16.52-27.54,25.44-42.27-32.87,3.92-73.4,27.8-98.93,58.79Zm272.66,456.03c34.09-9.42,64.37-25.81,90.57-48.86,3.38-2.98,5.31-7.61,8.44-12.27-16.97-11.33-32.46-20.9-51.02-24.78-15.65,28.01-30.97,55.44-47.98,85.91Z"/><polygon class="d" points="0 1258.91 270.14 967.51 649.33 1258.91 592.33 1341.93 0 1258.91"/><polygon class="d" points="369.91 967.51 649.33 1187.28 753.38 1077.4 478.32 862.91 369.91 967.51"/><path class="d" d="M592.33,742.85l-114,120.06,114-120.06Z"/><polygon class="d" points="753.38 1077.4 592.33 742.85 478.32 862.91 753.38 1077.4"/><path class="d" d="M592.33,742.85l161.05,334.55h761.35s277.12-244.38,285.51-274.52c8.38-30.14,0-152.85,0-152.85V360.3c-80.84-136.49-102.56,0-102.56,0v273.48l-132.56,75.32c102.88,72.83,0,153.81,0,153.81h-515.03l-1.74-29.89,388.01-.16c85.65-49.97,0-90.01,0-90.01h-142.75s-59.38-9.45-89.12-44.32c-29.74-34.87-96.66-32.38-96.66-32.38l-354.45,.75-161.05,75.95Z"/><path class="d" d="M1444.88,613.85l69.39-54.79V170.53c59.48-99.62,151.18,12.45,127.03,20.41-24.15,7.96-17.98,33.75-17.98,33.75v379.19l-76.83,74.72c-24.78-37.36-76.83-49.81-76.83-49.81l-24.78-14.94Z"/></g></g></g></svg>