<?xml version="1.0" encoding="UTF-8"?><svg xmlns="http://www.w3.org/2000/svg" viewBox="0 0 1011.33 718.05"><defs><style>.d,.e{fill:#fff;}.e{stroke:#000;stroke-miterlimit:10;}</style></defs><g id="a"/><g id="b"><g id="c"><g><g><rect class="d" x="313.61" y=".5" width="433" height="205.45" rx="32.68" ry="32.68"/><path d="M713.93,1c17.75,0,32.18,14.44,32.18,32.18V173.27c0,17.75-14.44,32.18-32.18,32.18H346.29c-17.75,0-32.18-14.44-32.18-32.18V33.18c0-17.75,14.44-32.18,32.18-32.18h367.64m0-1H346.29c-18.33,0-33.18,14.86-33.18,33.18V173.27c0,18.33,14.86,33.18,33.18,33.18h367.64c18.33,0,33.18-14.86,33.18-33.18V33.18c0-18.33-14.86-33.18-33.18-33.18h0Z"/></g><g><rect x="366.17" y="29.37" width="327.88" height="24.99"/><path d="M693.55,29.87v23.99H366.67V29.87h326.88m1-1H365.67v25.99h328.88V28.87h0Z"/></g><g><rect x="366.17" y="77.74" width="327.88" height="24.99"/><path d="M693.55,78.24v23.99H366.67v-23.99h326.88m1-1H365.67v25.99h328.88v-25.99h0Z"/></g><path class="e" d="M419.16,206.45s23.83,16.11,0,68.15c-23.83,52.04,29.31-77.18,50.79-68.15"/></g><g><path class="e" d="M221.61,286.57c-39.67,.46-71.95,32.44-73,71-1.09,40.01,31.81,74.49,73,75"/><path class="e" d="M221.19,432.53c39.67-.46,71.95-32.44,73-71,1.09-40.01-31.81-74.49-73-75"/></g><g><path class="e" d="M509.59,286.57c-39.67,.46-71.95,32.44-73,71-1.09,40.01,31.81,74.49,73,75"/><path class="e" d="M509.17,432.53c39.67-.46,71.95-32.44,73-71,1.09-40.01-31.81-74.49-73-75"/></g><g><path class="e" d="M797.59,286.57c-39.67,.46-71.95,32.44-73,71-1.09,40.01,31.81,74.49,73,75"/><path class="e" d="M797.17,432.53c39.67-.46,71.95-32.44,73-71,1.09-40.01-31.81-74.49-73-75"/></g><path class="e" d="M104.61,500.5S40.61,519.5,.61,717.5H209.35l-64.77-145.42,24.03-16.58,67.85,162h125.21v-25.14h-107.97l-72.56-172.23s-20.53-54.62-76.53-19.62Z"/><path class="e" d="M371.62,681.97v35.46h46.02s29.04-15.92,0-35.46h-46.02Z"/><g><polygon class="e" points="469.95 500.62 543.14 500.62 506.55 538.45 469.95 500.62"/><path class="e" d="M450.53,500.67s-89.8,19.46-84.86,171.67h32.91s12.03-44.79,19.03-42.79l18.95,14.55-11.95,28.45s55,19,0,45h81.94v-144.22l-56.02-72.66Z"/><path class="e" d="M563.42,500.67s89.8,19.46,84.86,171.67h-32.91s-12.03-44.79-19.03-42.79l-18.95,14.55,11.95,28.45s-55,19,0,45h-81.94v-144.22l56.02-72.66Z"/></g><path class="e" d="M906.72,500.35s64,19,104,217h-208.74l64.77-145.42-24.03-16.58-67.85,162h-125.21v-25.14h107.97l72.56-172.23s20.53-54.62,76.53-19.62Z"/><path class="e" d="M640.47,681.97v35.46h-46.02s-29.04-15.92,0-35.46h46.02Z"/></g></g></svg>