<?xml version="1.0" encoding="UTF-8"?><svg xmlns="http://www.w3.org/2000/svg" viewBox="0 0 745.17 724.17"><defs><style>.d,.e{fill:#fff;}.e{font-family:KozGoPr6N-Regular-83pv-RKSJ-H, Kozuka Gothic Pr6N;font-size:100px;}</style></defs><g id="a"/><g id="b"><g id="c"><text/><path class="d" d="M410.36,152c40.33-1.75,72.56-34.97,73.18-74.82,.63-40.59-31.73-75.19-72.81-77.18h.25c-40.33,1.84-72.48,35.14-73,75-.53,40.6,31.92,75.11,73,77"/><polygon class="d" points="338.74 193.17 482.78 193.17 410.76 300.17 338.74 193.17"/><path class="d" d="M308.09,193.17h-48.18s.53,57.57-62.44,114.89l-23.79,114.71s-16.09,57.4,23.3,57.4h188.29s-2.63-58.99,22.62-58.99-146.27,0-146.27,0v-28.7l107.96-1.59s6.97-76.53,8.71-73.34c1.74,3.19-70.19-124.37-70.19-124.37Z"/><polygon class="d" points="433.41 391.17 388.11 391.2 410.72 316.18 433.41 391.17"/><text class="e" transform="translate(126.46 238.67)"><tspan x="0" y="0">＄</tspan></text><path class="d" d="M513.07,192.86h48.18s-.53,57.57,62.44,114.89l23.79,114.71s16.09,57.4-23.3,57.4h-188.29s2.63-58.99-22.62-58.99,146.27,0,146.27,0v-28.7l-107.96-1.59s-6.97-76.53-8.71-73.34c-1.74,3.19,70.19-124.37,70.19-124.37Z"/><text class="e" transform="translate(594.67 238.67)"><tspan x="0" y="0">＄</tspan></text><path class="d" d="M679.39,682.76c-3.17,.52-6.42-.38-9.67-.43-3.16-.05-6.31-.39-9.47-.58-3.28-.19-6.57-.33-9.85-.53-3.28-.2-6.56-.46-9.84-.69-3.16-.22-6.31-.46-9.47-.65-3.28-.2-6.57-.32-9.85-.52-3.16-.19-6.31-.43-9.47-.64-3.27-.22-6.55-.42-10.01-.64-.35,.99-.76,1.87-.99,2.81-1.41,5.84-3.1,11.56-5.36,17.03-1.92,4.68-4.16,9.13-7.08,13.07-1.75,2.36-3.68,4.48-6.06,5.97-4.5,2.81-8.55,1.94-11.91-2.58-1.68-2.26-2.79-4.91-3.72-7.68-1.44-4.29-2.38-8.75-2.88-13.29-.63-5.71-.97-11.47-1.36-17.21-.06-.81,.25-1.66,.43-2.77,6.33-.01,12.48,.78,18.65,1.08,6.03,.29,12.06,.83,18.01,.97,1.35-2.87,1.42-5.74,1.76-8.46,2.07-16.75,1.44-33.32-2.81-49.58-5.86-22.37-17.37-39.81-33.97-52.73-.93-.72-1.99-1.38-3.07-1.64-2.46-.61-4.96-.96-7.39-1.4-.54,1.42,.39,1.73,.88,2.21,14.45,14.27,23.3,32.46,27.39,53.89,1.66,8.7,2.26,17.53,1.08,26.43-.79,5.9-2.17,11.55-5.04,16.57-4.19,7.34-10.11,10.91-17.65,10.79-.49,0-.97-.21-1.67-.37,.09-.78,0-1.58,.28-2.12,1.52-3.01,1.15-6.02-.04-8.92-.98-2.38-2.11-4.73-3.45-6.85-4.46-7.05-9.9-13.02-15.57-18.71-.15-.15-.42-.13-1.04-.3,1.3,2.38,2.69,4.23,4.07,6.07,1.5,2,3.04,3.97,4.58,5.92,1.45,1.83,2.93,3.63,4.57,5.66-.62,.62-1.04,1.11-1.52,1.49-.62,.5-1.34,.84-1.93,1.39-3.15,2.88-3.43,7.39-.71,10.84,1.5,1.9,3.46,2.9,5.48,3.84,.98,.46,2.43,.09,2.81,1.78,.22,.97-1.11,1.46-3.61,1.13-3.53-.46-6.94-1.58-10.27-3.02-1.41-.61-2.82-1.2-4.22-1.78-.76,1.22,.03,2.11,.29,2.98,1,3.24,1.53,6.54,1.39,9.99-.31,7.36-4.38,12.46-10.64,13.22-3.57,.44-7.06-.14-10.49-1.35-1.16-.41-2.34-.73-3.84-1.19,.26,1.55,.49,2.66,.62,3.78,.66,5.81-1.58,9.68-6.48,11.2-2.98,.92-5.99,1-9.03,.47-.74-.13-1.49-.22-2.38-.36-3.88,6.03-9.63,7.67-15.56,8.81-6.7,1.29-13.37,.54-20.03-.5-10.96-1.71-21.51-5.14-31.75-10.04-4.09-1.96-8.29-3.61-12.43-5.41-.93-.41-1.84-.89-2.61-1.26-.54-1.44,.24-2.17,.68-3.01,2.51-4.78,5.14-9.49,7.53-14.35,1.89-3.85,3.45-7.92,4.29-12.27,.39-2,.68-4.08,.68-6.12-.01-5.29-2.38-7.82-6.96-7.5-1.49,.11-3.02,.48-4.43,1.05-5.87,2.4-10.65,6.72-14.82,11.98-.74,.93-1.11,2.28-1.53,3.5-1.64,4.8-3.11,9.69-4.88,14.42-1.97,5.27-4.17,10.44-6.34,15.61-1.13,2.68-1.19,2.64-1.18,6.5,4.35,3.94,9.02,7.4,14.61,8.63,1.96,.43,4.04,.58,6.01,.34,2.28-.27,4.38-1.32,5.13-4.31-4.18-2.99-5.43-4.58-5.24-7.53,.18-2.91,.72-5.79,3.17-7.73,2.89,3.41,3.77,7.71,4.73,12.14,3.42-.02,5.57-2.61,7.99-4.96,.78,.58,1.55,1.04,2.19,1.67,3.61,3.52,7.71,5.58,12.44,5.85,2.27,.13,4.54,.32,6.81,.52,.62,.05,1.24,.17,1.84,.36,.18,.05,.36,.41,.39,.66,.03,.24-.07,.65-.22,.75-.43,.28-.91,.57-1.38,.63-8.33,1.08-16.32,3.97-24.46,6.06-5.68,1.46-11.34,3.02-17.19,3.27-2.02,.08-4.07,.17-6.06-.13-1.98-.3-3.97-.9-5.84-1.71-2.59-1.13-4.42-3.37-5.59-6.31-.42-1.04-.8-2.1-1.24-3.26-2.05,.95-3.91,1.84-5.78,2.65-2.51,1.08-5.09,1.72-7.79,1.64-4.64-.15-7.92-2.68-9.84-7.58-1.74-4.42-2-9.13-1.83-13.89,.34-9.4,2.32-18.41,5.23-27.12,1.61-4.81,3.54-9.47,5.48-14.11,1.99-4.79,4.03-9.55,5.12-14.75,.75-3.59,1.41-7.19,.73-10.94-1.04-5.76-3.98-8.71-9-8.75-2.56-.02-5,.68-7.37,1.84-4.5,2.22-8.33,5.57-11.7,9.65-4.45,5.37-7.89,11.55-10.27,18.47-.74,2.16-1.14,4.53-1.48,6.84-.53,3.64-.96,7.3-1.29,10.97-.24,2.66,.04,5.31,.63,7.91,.71,3.12,2.07,5.78,4.5,7.38,1.56,1.02,2.49,2.4,2.99,4.3,.04,.14,.09,.28,.13,.42,1.35,4.14,3.8,6.51,7.71,6.58,1.64,.03,3.28,.12,4.92,.23,.49,.03,.97,.24,1.37,.35,.51,1.3-.19,1.76-.89,2.12-7.87,3.93-17.82,1.75-23.05-8.67-2.12-4.22-2.93-8.82-2.54-13.64,.35-4.4,.93-8.78,1.41-13.08-2.94-1.28-6.05-2.44-9.01-3.98-2.18-1.13-4.28-2.58-6.23-4.19-4.84-3.99-8.15-9.22-8.94-16.39-3.33-3.12-6.64-1.23-10.22,.33-.04-.94-.24-1.68-.05-2.23,.47-1.37,1.1-2.66,1.69-3.96,5.69-12.71,11.05-25.59,15.33-39.05,1.9-5.96,3.63-11.99,4.51-18.28,.41-2.9,.51-5.87,.62-8.81,.11-2.86-.68-5.52-1.75-7.7,.42-2.08,1.73-2.06,2.77-2.41,3.64-1.22,7.34-2.21,10.94-3.57,12.53-4.73,24.53-11,36.51-17.35,1.61-.85,3.22-1.72,4.8-2.64,.4-.23,.71-.69,1.3-1.27-12.45,1.15-24.51,2.52-36.6,3.3-12.13,.78-24.26,.22-36.56-1.13-1.13-1.83-2.29-3.73-3.49-5.68-2.94-.28-5.83-.47-8.71-.85-15.82-2.09-31.64-4.25-47.47-6.34-13.57-1.79-27.12-3.67-40.71-5.24-12.71-1.47-25.45-2.55-38.23-2.64-1.23,0-2.46,.11-4.38,.21,.8,.69,1.01,1.02,1.25,1.06,34.26,5.59,63.65,23.27,89.58,49.43,10.2,10.29,19.05,22.03,26.34,35.32,6.19,11.28,10.91,23.32,13.49,36.43,2.49,12.71,2.73,25.47,.38,38.25-.1,.57-.3,1.12-.46,1.67-.04,.13-.15,.23-.39,.59-.57-.07-1.34,.02-1.99-.27-9.44-4.15-19.27-5.96-29.25-6.96-14.02-1.41-28.04-1.18-42.06-.1-23.39,1.81-46.46,6.02-69.21,12.64-7.97,2.32-15.84,5.07-23.6,8.24-.93,.38-1.89,.69-2.77,1.01-.77-1.1-.55-1.8,.34-2.22,1.29-.61,2.59-1.17,3.9-1.71,11.84-4.81,23.95-8.43,36.2-11.44,12.38-3.03,24.86-5.37,37.43-6.98,14.71-1.88,29.47-3.12,44.29-2.7,11.39,.32,22.74,1.18,33.89,4.19,3.07,.83,6.1,1.92,9.14,2.91,.71,.23,1.41,.49,2.37,.83,.26-.84,.53-1.46,.64-2.13,2.62-15.79,1.1-31.18-3.44-46.24-3.91-12.95-9.78-24.63-16.95-35.45-9.29-14.01-20.25-25.98-32.51-36.36-17.89-15.15-37.38-26.44-58.81-32.95-9.83-2.99-19.82-4.66-29.99-4.72-.98,0-1.97-.16-2.84-.23-.43-1.08-.14-1.73,.54-1.97,1.57-.55,3.15-1.18,4.76-1.41,3.26-.46,6.54-.85,9.82-.97,10.76-.39,21.49,.3,32.2,1.45,9.06,.97,18.13,1.93,27.18,3.03,7.42,.9,14.82,1.97,22.23,3,9.66,1.34,19.32,2.74,28.99,4.07,5.4,.74,10.8,1.43,16.21,2.06,3.77,.44,7.56,.75,11.34,1.13,.75,.07,1.5,.17,2.45,.28,.75,1.28,1.58,2.56,2.28,3.94,.65,1.28,1.57,1.86,2.78,1.95,.5,.04,1.01,.11,1.51,.16,14.27,1.19,28.55,1.51,42.82,.03,8.69-.91,17.36-2.05,26.04-3.02,2.61-.29,5.23-.85,8.19-.41-.22,.69-.27,1.28-.54,1.62-.33,.41-.83,.66-1.29,.91-14.61,8.14-29.28,16.11-44.57,22.36-4.41,1.8-8.95,3.15-13.42,4.71-.6,.21-1.19,.47-1.66,.66-.7,1.02-.08,1.82,.1,2.61,1.26,5.32,.5,10.58-.39,15.8-1.19,6.97-3.17,13.68-5.35,20.3-3.68,11.18-8.12,21.96-12.77,32.63-.56,1.3-1.08,2.62-1.77,4.29,1.4,0,2.48-.07,3.55,.02,1.1,.09,2.19,.34,3.38,.54,.4-1.44,.7-2.71,1.1-3.93,1.87-5.66,5.29-9.28,10.42-10.5,3.77-.9,7.55-.83,11.28,.33,4.65,1.44,7.34,5.03,8.03,10.55,.27,2.18,.24,4.41,.28,6.63,.02,1.31-.11,2.62-.17,3.96,1.28-.03,1.47-1.26,1.92-2.05,2.62-4.58,5.63-8.74,9.25-12.27,3.83-3.74,8.01-6.74,12.95-7.98,1.47-.37,3-.61,4.5-.59,5.93,.09,10.09,4.44,10.63,11.35,.22,2.76-.13,5.59-.27,8.38-.04,.86-.24,1.72-.46,3.17,.83-.7,1.36-1,1.72-1.47,2.2-2.88,4.53-5.61,7.35-7.63,1.92-1.38,3.96-2.69,6.09-3.51,5.08-1.95,9.34,.51,11.33,6.32,1.14,3.34,1.44,6.87,1.26,10.45-.23,4.46-1.21,8.74-2.23,13.01-.37,1.53-.7,3.07-1.24,5.43,1.69-1.53,2.76-2.54,3.87-3.49,3.7-3.17,7.62-5.82,12.19-6.87,.37-.09,.74-.21,1.11-.28,6.28-1.1,10.32,3.1,10.1,10.57-.1,3.43-.91,6.7-1.92,9.9-2.15,6.84-5.28,13.08-8.64,19.18-.74,1.34-1.46,2.7-2.32,4.28,.75,.44,1.27,.81,1.83,1.06,5.55,2.47,11.09,4.99,16.67,7.35,13.18,5.56,26.7,8.98,40.8,8.65,4.34-.1,8.57-.92,12.59-2.82,1.51-.71,2.91-1.76,4.3-2.77,.47-.34,.75-1.04,1.21-1.72-.57-.34-.86-.59-1.19-.7-1.7-.58-3.45-.98-5.09-1.72-4.18-1.89-8.5-2.63-12.97-2.73-4.44-.09-8.79-1.08-13.03-2.65-5.58-2.07-10.03-5.86-12.32-12.23-1.47-4.1-3.93-6.27-7.34-7.56-3.48-1.32-6.93-2.76-10.39-4.18-.58-.24-1.15-.55-1.69-.92-.15-.1-.23-.53-.19-.79,.03-.25,.21-.53,.4-.68,.2-.16,.47-.23,.71-.25,3.3-.24,6.58-.11,9.79,.91,2.63,.83,4.93,2.33,6.61,4.89,.86,1.31,1.82,2.38,3.06,3.23,9.19,6.24,18.55,12.08,28.39,16.83,2,.97,4.01,1.65,6.21,1.68,1.76,.03,3.52,.41,5.26,.78,2.01,.42,3.94,1.12,5.39,2.96,.74,.94,1.67,1.31,2.71,1.35,2.27,.08,4.54,.16,6.82,.16,.75,0,1.52-.16,2.24-.39,4.62-1.42,6.34-5.09,4.94-10.41-.7-2.65-1.91-4.58-4.21-5.84-7.01-3.84-13.39-8.93-19.55-14.38-1.74-1.54-3.59-2.67-5.61-3.6-4.23-1.96-8.43-3.99-12.56-6.22-4.03-2.17-7.77-4.92-11.07-8.47-.82-.88-1.86-1.49-2.85-2.12-1.67-1.06-3.44-1.9-5.04-3.07-1.16-.85-2.19-1.98-3.12-3.16-.81-1.04-.93-2.45-.42-3.75,.54-1.38,1.65-1.77,2.86-1.69,2.58,.16,4.69,1.34,5.76,4.23,2.91,7.81,2.74,6.37,8.25,9.42,7.21,3.98,14.37,8.02,21,13.25,1.03,.81,2.27,1.27,3.44,1.8,2.35,1.08,4.77,1.96,7.08,3.16,5.63,2.91,10.58,6.94,14.44,12.62,.82,1.21,1.78,2.02,2.99,2.58,3.43,1.58,6.94,2.78,10.62,3.15,1.25,.13,2.52,.03,3.77-.13,6.32-.82,9.39-6.27,8.88-13.4-.18-2.47-.85-4.91-1.47-7.3-.93-3.55-2.84-5.87-5.87-7.53-8.82-4.83-17.16-10.73-25.43-16.75-2.38-1.73-4.86-3.09-7.53-4.1-3.61-1.35-7.18-2.84-10.73-4.39-1.77-.77-3.49-1.73-5.18-2.72-2.94-1.71-5.19-4.33-6.31-7.93-.79-2.55-2.2-4.11-4.11-5.48-1.81-1.3-3.48-2.95-5.04-4.65-2.38-2.6-3.69-5.96-4.37-9.65-.29-1.6-.37-3.23,.19-4.8,.63-1.75,2.13-2.48,3.38-1.34,1.27,1.16,2.52,2.54,3.34,4.13,1.63,3.15,2.98,6.5,4.39,9.81,1.01,2.37,1.57,5.15,2.99,7.07,1.34,1.81,3.55,2.74,5.37,4.08,5.99,4.41,11.99,8.8,17.95,13.27,2.04,1.53,4.19,2.68,6.5,3.51,3.74,1.35,7.45,2.83,11.17,4.26,6.79,2.61,12.48,7.11,16.81,13.78,1.13,1.73,2.44,2.92,4.14,3.66,2.25,.98,4.48,2.02,6.73,3,.57,.25,1.18,.35,2.32,.68-.94-1.82-1.64-3.11-2.27-4.44-.7-1.48-.73-3.11-.64-4.75,.1-1.68,.65-3.16,1.53-4.46,.86-1.27,1.8-2.46,2.86-3.88-.32-.47-.81-1.31-1.4-2.03-5.45-6.62-10.47-13.63-14.81-21.31-.81-1.44-1.99-2.68-3.19-3.72-10.34-9.01-20.69-18-31.1-26.9-5.92-5.06-11.97-9.91-17.94-14.89-3.62-3.02-7.53-5.43-11.6-7.47-5.92-2.97-11.9-5.79-17.84-8.72-2.33-1.15-4.65-2.33-6.93-3.59-4.82-2.66-9.45-5.66-12.83-10.82-4.31,.76-8.55,1.73-12.86,.6-.47,.34-.91,.61-1.31,.96-8.35,7.35-17.86,10.89-28.21,11.49-2.25,.13-4.54-.31-6.78-.7-1.1-.19-2.19-.75-3.19-1.34-3.62-2.12-5.11-5.74-4.03-10.29,.5-2.11,1.38-4.12,2.28-6.06,1.02-2.2,2.28-4.26,3.39-6.41,3.87-7.5,7.09-15.34,8.97-23.86,.99-4.5,1.96-6.47,7.4-5.57,8.13,1.35,16.27,2.63,24.44,3.71,4.9,.64,9.84,.74,14.75,1.27,4.15,.45,8.29,1.05,12.4,1.81,3.3,.61,6.28,2.28,8.79,4.9,4.89,5.09,10.58,8.57,16.67,11.2,2.84,1.23,5.71,2.39,8.59,3.49,7.53,2.87,14.45,7.03,20.58,12.95,1.56,1.51,3.17,2.94,4.77,4.39,5.06,4.59,10.84,6.89,17.18,7.4,6.07,.49,12.13,.26,18.18-.45,.85-.1,1.72-.01,2.48-.01,.75,1.36,.04,2.13-.55,2.87-4.33,5.48-9.64,9-15.79,10.86-1.21,.37-2.43,.68-3.85,1.07,0,1.12,.01,2.13,0,3.13-.05,3.69-.02,7.39-.18,11.08-.46,11.08,1.78,21.38,6.3,31.08,1.04,2.24,2.35,4.12,4.02,5.79,4.23,4.22,8.4,8.53,12.47,12.96,2.3,2.52,4.39,5.32,6.49,8.08,1.17,1.54,2.25,3.2,3.25,4.91,2.74,4.7,5.09,9.57,3.85,15.79,1.63,.53,2.98,.21,4.3-.19,3.93-1.2,7.14-3.69,9.63-7.44,2.21-3.31,3.63-7.07,4.63-11.08,1.91-7.66,2.07-15.51,1.27-23.31-2.01-19.61-8.61-36.93-19.72-51.86-3.67-4.93-7.83-9.24-12.38-13.02-.73-.6-1.55-1.14-.98-2.62,2.42-.79,4.9,.43,7.44,.35-.34-1.72-1.81-1.61-2.54-2.54-.23-.29-.45-.76-.42-1.12,.03-.35,.35-.81,.63-.94,.58-.26,1.21-.37,1.83-.49,17.47-3.3,34.95-6.48,52.4-9.91,26.67-5.24,53.31-10.65,79.71-17.58,2.84-.74,5.66-1.55,8.49-2.29,.47-.12,.98-.15,1.47-.11,.16,.02,.37,.38,.42,.63,.05,.25,0,.7-.13,.79-.64,.4-1.3,.85-2.01,1.04-9,2.34-17.97,4.9-27.04,6.89-20.86,4.58-41.76,9-62.67,13.24-14.69,2.98-29.44,5.55-44.17,8.32-1.33,.25-2.65,.64-4.08,.99,1.94,2.36,4.84,4.4,7.1,5,31.38,8.33,58.8,25.65,83.04,50.12,7.3,7.37,13.82,15.61,19.42,24.81,4.87,8,8.84,16.53,11.09,26.06,1.21,5.15,1.89,10.4,1.77,15.76-.03,1.46,.04,2.97-.89,4.46Zm-341.74-36.45c-.22,.11-.56,.16-.63,.35-1.21,3.2-2.82,6.1-4.79,8.63,.54,1.53,.88,2.92,2.24,3.98,1.37-4.41,2.99-8.48,3.11-13.1l.13-.61-.07,.74Zm153.81-9.22c.17,.18,.32,.37,.51,.53,.03,.02,.16-.13,.24-.2l-.81-.22c-.21-.46-.32-1.1-.65-1.35-3.83-2.87-7.69-5.69-11.56-8.49-.27-.2-.65-.18-1.06-.28,.83,2.72,1.1,3.37,2.65,4.65,3.22,2.67,6.75,4.57,10.68,5.36Zm21.69,11.08c-.25,.04-.49,.07-.08,.01-.37,.11-.09,.03,.18-.05-.41,1.18,.39,1.6,1.01,2.01,4.84,3.19,9.7,6.35,14.57,9.48,.31,.2,.76,.1,1.73,.21-3.81-4.66-7.85-7.56-12.4-9.56-1.65-.72-3.31-1.42-5.01-2.1Zm-165.92,47.51c.16,.15,.32,.31,.49,.43,.02,.02,.13-.12,.2-.18-.25-.05-.5-.09-.75-.14,0-.27,.08-.67-.04-.79-1.91-1.85-3.11-4.26-3.95-6.92-.45-1.44-1.16-2.5-2.32-3.32-2.58-1.83-4.25-4.53-5.15-7.93-.23-.86-.22-1.96-1.08-2.63-.42,6.37,.7,11.31,3.71,15.44,2.33,3.19,5.03,5.82,8.89,6.04Zm43.1-12.21c1.07-.2,1.21-1.38,1.65-2.22,1.59-3.01,2.82-6.39,4.8-8.99,2.98-3.93,4.4-8.53,5.55-13.38,.54-2.28,1.11-4.54,1.6-6.83,.78-3.59,1.24-7.24,1.03-10.96-.14-2.54-.59-4.98-1.62-7.23-1.63-3.56-4.21-5.02-7.58-4.09-1.58,.43-3.15,1.13-4.56,2.05-3.33,2.17-6.26,4.99-8.65,8.5-.1,.15,.02,.5,.05,1.06,.88-.76,1.64-1.44,2.42-2.09,1.64-1.38,3.22-2.86,4.95-4.08,1.28-.91,2.7-1.65,4.14-2.13,2.46-.82,4.21,.35,4.91,3.29,.37,1.54,.59,3.21,.49,4.79-.19,3.08-.51,6.18-1.04,9.2-1.99,11.29-5.09,22.22-8.18,33.16l.05,.67v-.73Zm287.69-3.16c.59-5.6,.01-10.68-1.06-15.72-1.92-9-5.48-17.11-9.9-24.75-4.77-8.24-10.38-15.63-16.57-22.43-17.53-19.24-37.68-33.67-59.89-44.27-6.32-3.02-12.79-5.53-19.39-7.58-.49-.15-1.13-.7-1.61,.42,1.27,1.22,2.53,2.41,3.78,3.63,18,17.52,27.77,40.15,30.37,67.17,1.13,11.83,.63,23.6-1.29,35.29-.18,1.11-.14,2.27-.2,3.38,.59,.21,.95,.43,1.31,.46,24.23,1.54,48.45,3.07,72.68,4.59,.48,.03,.97-.1,1.78-.2Zm-153.31-106.85c6.65-.66,12.16-3.59,16.9-8.58,.17-.18,.08-.71,.13-1.24-.78,.06-1.41,.14-2.03,.16-4.17,.14-8.34,.48-12.5,.34-8.33-.27-15.89-3.2-22.28-9.69-.57-.58-1.19-1.1-1.77-1.68-6.54-6.52-13.97-11.08-22.15-14.1-3.73-1.38-7.4-2.99-11.03-4.71-4.71-2.23-9.13-5.11-12.94-9.1-3.22-3.38-6.98-5.31-11.24-5.85-5.02-.64-10.05-1.25-15.09-1.66-8.95-.73-17.88-1.67-26.76-3.26-3-.54-6-1.05-9.01-1.38-1.98-.22-2.45,.28-3.13,2.35-.18,.55-.34,1.11-.46,1.68-2.05,9.24-5.63,17.69-9.88,25.78-.99,1.89-2.12,3.69-2.98,5.66-.74,1.69-1.42,3.49-1.74,5.33-.61,3.42,.46,5.71,3.1,7.27,1.95,1.15,4.05,1.64,6.22,1.75,3.3,.17,6.56-.1,9.8-.87,6.63-1.58,12.88-4.25,18.46-8.81,.69-.57,1.28-1.32,2.06-2.15-1.79-2.83-1.67-5.96-1.61-9.06,.03-1.62,.09-3.25,.26-4.87,.52-5.01,.75-10,.06-15.02-.07-.54,.38-1.19,.68-2.04,3.44,2.83,5.71,6.3,7.39,10.31,2.35,5.63,2.06,11.14-.79,16.45-.59,1.1-1.24,2.17-1.9,3.32,1.2,1.24,2.51,.91,3.7,.7,2.06-.37,4.32,.14,6.26-1.71-.18-2.9,.45-5.55,1.99-7.86,2.61-3.92,5.97-6.77,9.64-9.16,.31-.2,.87,.13,1.34,.22-1.32,6.54-4.75,12.95-10,18.75,.63,1.64,1.72,2.87,2.96,3.88,1.86,1.51,3.75,3.05,5.76,4.24,3.26,1.94,6.61,3.69,9.98,5.37,5.58,2.78,11.23,5.36,16.79,8.16,4.41,2.22,8.69,4.76,12.62,8.06,15.08,12.68,30.47,24.86,45.18,38.15,.44,.39,.84,1.15,1.76,.52-.32-.9-.7-1.81-.98-2.75-.91-3.07-1.9-6.11-2.65-9.23-1.48-6.18-1.6-12.53-1.41-18.91,.09-3.1,.1-6.2,.03-9.3-.02-.96-.4-1.9-.59-2.75-11.58-1.69-18.31-7.73-19.58-17.4,1.77-.57,1.79-.63,6.01,1.31,6.03,2.78,12.02,5.68,15.41,13.35Zm-161.47,123.17c0,.74,0,1.48,0,2.22,.02,3.29,.5,6.48,1.64,9.49,1.38,3.66,3.76,5.9,7.21,6.32,1.24,.15,2.52,.02,3.76-.17,3.44-.5,6.56-2.12,9.61-3.92,.22-.13,.47-.3,.59-.53,.19-.35,.43-.81,.37-1.16-.12-.69-.56-.67-1.14-.53-1.43,.35-2.03-.08-2.04-1.38,0-1.02,.04-2.08,.25-3.07,.94-4.44,1.82-8.9,2.94-13.28,2.96-11.6,6.09-23.14,9.04-34.75,1.11-4.39,1.97-8.87,2.17-13.47,.07-1.61,.01-3.26-.23-4.84-.33-2.11-1.54-2.93-3.37-2.37-.96,.3-1.94,.75-2.77,1.38-1.69,1.29-3.4,2.6-4.89,4.17-3.55,3.77-6.97,7.72-10.47,11.57-1.5,1.65-2.57,3.62-3.46,5.76-2.39,5.72-4.48,11.58-6.04,17.67-1.75,6.81-3.06,13.72-3.16,20.88Zm201.1-20.28c.35,10.17,1.13,19.97,4.02,29.38,.42,1.38,.98,2.73,1.59,4.01,3.52,7.36,8.52,8.54,13.98,3.07,1.99-1.99,3.76-4.4,5.26-6.91,4.84-8.07,7.81-17.14,9.86-26.65,.06-.26-.05-.58-.09-.95-.31-.13-.64-.38-.98-.4-10.71-.68-21.43-1.35-32.14-1.99-.35-.02-.7,.2-1.5,.44Zm-225.42-41.4c0-.74,.03-1.48,0-2.21-.39-7.18-3.54-11.08-9.65-11.74-2.12-.23-4.29-.21-6.41,0-6.33,.64-10.62,6.14-10.9,13.63,2.51,2.81,4.99,5.51,7.39,8.31,1.6,1.87,3.03,3.95,4.62,5.83,1.06,1.25,2.22,2.4,3.44,3.43,.53,.44,1.32,.46,2.18,.72-.23-8.55,4.21-13.47,9.33-17.97Zm50.14,76.43c.05,1.06-.03,1.66,.12,2.16,1.21,4.12,3.78,6.6,7.31,7.56,2.19,.6,4.49,.96,6.73,.88,3.14-.1,6.31-.41,9.38-1.14,7.53-1.79,15.01-3.86,22.5-5.85,.41-.11,.75-.52,1.29-.92-2.17-.99-4.11-1.67-5.87-2.74-1.88-1.14-3.61-2.65-5.45-4.03-2.49,2.46-5.29,4.07-8.44,4.79-1.6,5.75-5.46,7-9.9,7.1-.5,.01-1-.11-1.5-.17-4.74-.56-9.01-2.65-13.03-5.53-.92-.66-1.86-1.27-3.13-2.13Zm29.06-162.59c2.29-2.09,3.56-4.75,4.21-7.76,.66-3.05,.47-6.11-.57-9.07-1.15-3.28-2.23-5.01-4.08-6.38-.11,.23-.3,.46-.32,.69-.26,5.13-.56,10.25-.7,15.38-.05,1.88,.26,3.77,.52,5.64,.07,.49,.55,.9,.93,1.49Zm57.19,149.32c-7-4.31-13.99-8.61-20.98-12.91-.44-.27-.9-.52-1.36-.76-.1-.05-.25-.06-.35-.01-.11,.05-.19,.19-.41,.43,1.63,4.3,4.27,7.55,7.9,9.61,4.72,2.68,9.74,3.95,14.99,3.98,.06,0,.13-.2,.22-.35Zm30.91-136.22c2.87,7.56,9.16,12.11,15.5,11.21,0-1.48-.92-2.33-1.68-3.24-2.78-3.32-6.3-5.26-9.92-6.94-1.21-.57-2.4-1.65-3.9-1.03Zm-176.24,95.38c.71-.76,.34-1.37-.33-1.55-3.13-.83-5.33-3.22-7.43-5.8-1.47-1.82-2.87-3.73-4.35-5.54-1.31-1.59-2.67-3.13-4.04-4.64-.3-.33-.76-.47-1.28-.77,.82,7.67,7.88,14.98,17.43,18.3Zm142.56-37.69c-.2-1.06-.22-1.63-.41-2.1-1.23-3.04-2.44-6.09-3.79-9.06-.64-1.41-1.51-2.69-2.38-3.92-.34-.48-.97-.69-1.54-1.07-.63,3.66-.41,5.4,1.14,8.6,1.55,3.2,3.65,5.72,6.98,7.56Zm-39.99-71.85c3.44-2.35,5.41-5.47,6.91-10.69-3.9,1.92-6.5,5.8-6.91,10.69Zm-42.55,146.22c.18,.09,.43,.25,.45,.22,1.85-3.13,5.41-13.23,5.92-17.13-3.21,5.49-5.03,11.07-6.37,16.9Zm-58.44-41.56c2.86-3.56,3.88-6.85,4.51-11.16-3.13,2.97-4.4,6.18-4.51,11.16Zm124.82-2.84c-.44-4.01-1.31-5.28-4.06-5.91-.48-.11-1.05,.36-1.74,.63,1.23,3.19,3.38,4.24,5.8,5.28Zm50.33,33.51c-.7-.85-1.03-1.42-1.49-1.76-2.54-1.88-5.1-3.73-7.69-5.52-.38-.27-.93-.21-2.15-.44,3.53,3.18,6.63,5.38,9.8,7.47,.28,.18,.67,.13,1.52,.26Zm-91.94,25.65c-.49-2.77-1-5.3-2.53-7.44-1.34,1.07-1.33,2.61-1.17,4.02,.1,.95,.54,1.94,1.05,2.72,.52,.79,1.29,1.43,2.65,.7Zm-27.5-11.65c-1.07,2.04-1.62,4.24-1.8,7.47,1.87-2.73,1.31-5.25,1.8-7.47Z"/></g></g></svg>