<?xml version="1.0" encoding="UTF-8"?><svg xmlns="http://www.w3.org/2000/svg" viewBox="0 0 1482.5 651.37"><defs><style>.d{fill:#fff;stroke:#000;stroke-miterlimit:10;}</style></defs><g id="a"/><g id="b"><g id="c"><path class="d" d="M657.18,583c6.29,5.73,9.96,13,10.39,22.26,.31,6.61-1.29,12.66-4.56,18.01-6.75,11.05-19.19,14.56-29.28,8.29-10-6.21-14.9-20.12-11.64-33.03,1.85-7.34,5.6-12.85,11.13-16.56,5.54-3.71,11.46-4.25,17.37-2.55,.34-.23,.48-.3,.59-.4,.11-.1,.23-.23,.29-.38,15.17-38.75,30.33-77.51,45.48-116.27,.25-.64,.48-1.3,.65-1.97,.08-.32,.01-.69,.01-1.39-.87-1.46-2.51-1.94-3.91-2.79-11.54-6.98-22.1-15.69-31.65-26.15-14.04-15.39-25.06-33.47-33.1-54.21-.62-1.6-1.26-3.18-1.87-4.71-1.74-.49-3,.62-4.34,1.22-24.45,10.95-48.89,21.92-73.34,32.9-12.43,5.58-24.86,11.16-37.29,16.74-1.37,.62-2.73,1.29-4.21,1.99,0,1.34-.15,2.57,.02,3.74,2.6,18.04-8.52,40.38-29.02,40.64-17.09,.21-27.22-15.53-29.33-29.57-2.98-19.81,9.59-42.46,30.33-41.63,9.37,.37,16.95,5.47,22.62,14.54,.88,1.41,1.67,2.9,2.53,4.41,1.78,.2,3.2-.88,4.68-1.55,26.8-12,53.59-24.03,80.38-36.06,9.94-4.46,19.88-8.94,29.82-13.43,1.36-.61,2.69-1.3,4.2-2.03-.16-1.1-.2-1.98-.43-2.78-6.49-22.32-8.64-45.31-7.43-68.84,.07-1.41,0-2.82,0-4.28-.9-1.38-2.29-1.45-3.55-1.73-25.48-5.82-50.96-11.58-76.44-17.4-24.17-5.52-48.34-11.1-72.51-16.65-10.85-2.49-21.71-4.97-32.57-7.42-.99-.22-2.02-.22-3.16-.33-.58,1.59-1.11,3.03-1.64,4.47-5.13,14.01-13.86,23.1-26.27,25.97-25.2,5.81-43.04-18.1-43.46-41.67-.35-19.82,10.8-39.87,29.2-44.09,23.83-5.47,41.69,16.11,43.11,38.66,.17,2.64,.23,5.3,.33,7.86,3.59,1.71,28.4,7.5,62.47,14.94,21.02,4.59,42,9.44,62.96,14.42,29.64,7.04,59.5,13.67,62.79,13.63,1.62-10.02,3.52-20.03,6.38-29.75,2.82-9.57,6.4-18.72,10.54-27.86-.61-.8-1.11-1.66-1.77-2.28-15.59-14.93-31.2-29.83-46.82-44.74-.46-.43-.97-.78-1.65-1.33-1.27,.66-2.58,1.43-3.93,2.01-7.37,3.16-15.53-1.58-17.73-10.57-2.58-10.54,2.81-18.53,9-20.86,8.43-3.18,17.26,4.09,17.64,14.74,.09,2.63-.34,5.28-.54,7.97,2.32,2.91,44.42,43.31,49.21,47.17,1.54-.78,2.12-2.72,3-4.24,8.5-14.72,18.62-27.56,30.47-38.39,18.56-16.96,39.32-27.75,62.32-32.34,10.39-2.07,20.82-2.34,31.3-1.9,1.6,.07,3.21,0,5,0,.3-1.27,.71-2.41,.82-3.58,1.6-16.07,3.16-32.14,4.72-48.21,.38-3.86,1.16-7.69,.76-11.73-1.33-.86-2.67-1.6-3.89-2.56-6.99-5.42-10.3-13.23-9.21-23.13,1.07-9.66,5.8-16.24,13.52-19.21,10.2-3.92,21.18,3.22,24.1,15.75,3.21,13.79-3.59,25.38-12.79,28.84-1.4,.53-2.84,.89-4.05,1.26-.28,.34-.39,.45-.48,.59-.08,.14-.18,.31-.19,.48-1.65,16.05-3.31,32.1-4.92,48.16-.44,4.41-.75,8.84-1.09,13.26-.02,.32,.17,.67,.36,1.39,4.39,1.2,8.99,2.26,13.5,3.73,4.69,1.52,9.36,3.22,13.91,5.24,4.42,1.96,8.76,4.22,12.98,6.74,4.35,2.6,8.62,5.46,12.73,8.57,3.99,3.01,7.87,6.3,11.58,9.79,3.72,3.49,7.31,7.21,10.71,11.15,3.51,4.06,6.83,8.37,10.02,12.79,3.07,4.27,5.87,8.83,8.66,13.05,.44,.06,.59,.12,.73,.1,.14-.02,.3-.07,.42-.17,21.47-16.6,42.95-33.2,64.41-49.82,16.62-12.88,33.23-25.79,49.84-38.7,.23-.18,.38-.53,.67-.96,.2-1.94-.9-3.54-1.45-5.33-5.36-17.44-3.94-34.02,4.93-49.24,8.36-14.34,20.21-21.82,34.67-21.91,24.06-.16,39.78,21.63,42.84,43.59,3.5,25.15-9.89,55.08-36.59,59.66-14.14,2.42-26.5-2.9-36.68-15.16-.63-.75-1.2-1.57-1.8-2.36-.5-.65-1-1.28-1.65-2.11-1.6,.42-2.83,1.7-4.15,2.73-26.92,20.85-53.84,41.71-80.76,62.57-9.06,7.02-18.12,14.03-27.17,21.05-1.35,1.05-2.67,2.17-4.17,3.38,.52,1.27,.9,2.39,1.4,3.43,8.9,18.31,14.77,37.94,17.58,58.88,.68,5.08,.91,10.25,1.39,15.37,.23,2.44-.06,4.99,.92,7.23,3.49,.76,13.03,.81,17.43,.08,.46-1.1,.97-2.35,1.49-3.59,3.5-8.26,10.85-12.82,17.95-11.15,7.69,1.81,13.21,8.91,13.98,18.23,.7,8.44-3.57,18.43-12.35,21.38-7.8,2.62-16.07-1.84-19.61-10.77-.69-1.75-1.23-3.58-1.86-5.44h-16.99c-.95,2.43-.82,4.95-.95,7.37-1.37,25.83-7.54,49.91-18.08,72.4-.79,1.68-1.57,3.37-2.26,4.86,.12,.46,.14,.65,.21,.79,.07,.15,.17,.31,.29,.4,61.37,43.9,122.75,87.79,184.13,131.68,.63,.45,1.3,.81,2.2,1.36,.84-.92,1.72-1.8,2.51-2.78,4.79-5.93,10.54-9.52,17.34-10.86,15.46-3.05,30.64,9.94,33.88,28.53,3.25,18.63-6.84,41.51-27.49,43.46-14.34,1.35-27.76-10.17-31.25-28.16-1.24-6.4-.96-12.71,.7-18.95,.31-1.17,.58-2.35,.9-3.65-1-1.7-2.56-2.4-3.92-3.37-27.01-19.32-54.03-38.61-81.05-57.91-32.6-23.29-65.19-46.6-97.79-69.89-1.38-.99-2.8-1.9-4.25-2.89-1.73,.93-2.4,2.83-3.33,4.33-7.19,11.6-15.43,21.99-24.8,31.05-19.27,18.65-41.12,30.45-65.49,35.21-23.75,4.64-47.01,1.97-69.7-7.73-1.37-.59-2.76-1.13-4.06-1.67-1.62,1.34-1.98,3.34-2.65,5.06-11.2,28.63-22.37,57.27-33.54,85.91-3.77,9.65-7.52,19.3-11.53,29.59Zm99.35-436.83c-72.42-.58-131.22,71.01-131.56,157.7-.34,84.97,56.24,158.8,130.84,159.19,72.31,.38,131.6-69.7,131.76-158.05,.16-90.67-61.06-159.25-131.03-158.84Z"/><path class="d" d="M250.23,124.42c.28,5.78,.84,11.26,.71,16.71-.12,5.29-.96,10.55-1.52,16.18,4.61,2.42,9.57,4.04,14.43,5.96,4.88,1.93,9.67,4.21,14.68,5.59,1.18-1.1,2.16-2.19,3.28-3.02,4.39-3.28,10.07-1.55,12.7,3.8,2.63,5.35,1.14,12.13-3.35,15.26-4.89,3.42-11.14,.71-13.12-5.78-.5-1.64-.67-3.43-.99-5.17-3.04-1.95-24.67-10.63-29.03-11.59-.35,.58-.89,1.2-1.15,1.96-3.19,9.18-7.89,17.04-14,23.71-.42,.46-.75,1.05-1.1,1.54,2.09,3.84,88.5,123.14,91.55,126.38,1.25-.61,2.57-1.38,3.95-1.89,6.72-2.52,12.56-.61,17.33,5.54,4.53,5.83,5.43,14.56,2.5,21.9-2.76,6.93-9.03,11.38-15.49,10.99-11.47-.69-18.83-15.3-14.02-27.9,.61-1.61,1.43-3.1,2.21-4.75-.15-2.08-1.6-3.23-2.62-4.65-15.79-21.86-31.61-43.69-47.43-65.53-12.71-17.55-25.42-35.1-38.14-52.64-1.05-1.45-2.15-2.84-3.18-4.21-22.26,17.22-46.52,14.54-65.14-1.72-1.55,.58-2.43,2.33-3.51,3.7-16.74,21.3-33.46,42.62-50.18,63.95-.8,1.02-1.52,2.12-2.3,3.23,.55,1.62,1.11,3.06,1.55,4.54,1.9,6.45,.02,13.57-4.58,17.52-4.41,3.79-10.53,3.71-14.9-.19-4.38-3.91-6.2-10.96-4.43-17.14,1.87-6.52,6.96-10.91,12.54-10.4,2.16,.19,4.26,1.19,6.83,1.94,1.35-.56,2.34-2.42,3.52-3.93,12.29-15.61,24.54-31.26,36.8-46.9,4.05-5.17,8.11-10.33,12.16-15.51,1-1.28,1.96-2.62,3.11-4.17-.58-.92-1.02-1.79-1.59-2.51-7.91-9.87-12.96-21.49-14.89-35.06-.12-.88-.31-1.74-.48-2.6-.07-.34-.19-.67-.4-1.36-.84-.1-1.82-.36-2.79-.32-12.52,.55-25.04,1.15-37.57,1.73-15.76,.73-31.53,1.45-47.29,2.19-.72,.03-1.43,.18-2.26,.29-.55,1.98-.99,3.84-1.59,5.62-2.86,8.58-10.57,13.69-17.91,11.79-8.27-2.14-13.01-10.13-13.07-18.95-.06-8.64,4.4-16.58,12.4-19.06,7.14-2.22,14.83,2.22,18.12,10.38,.64,1.59,1.11,3.27,1.65,4.88,3.15,.49,77.85-2.47,86.63-3.45,1.14-.13,2.26-.45,3.38-.68,.45-4.68,.68-9.11,1.34-13.44,.66-4.33,1.75-8.56,2.64-12.79-2.96-2.64-101.27-68.5-109.1-73.1-1.6,.31-2.21,2.16-3.25,3.33-6.28,6.97-15.05,8.49-22.57,3.82C4.02,43.91-.47,33.82,.68,24.55,2,13.87,7.99,6.14,16.36,3.94,29.54,.46,42.32,14.63,39.7,31.38c-.27,1.72-.58,3.43-.85,5.06,3.13,2.8,105.28,71,109.36,72.99,1.06-2.01,2.09-4.13,3.25-6.15,1.26-2.19,2.56-4.35,3.96-6.41,1.3-1.92,2.75-3.7,4.27-5.72-.3-.79-.49-1.64-.89-2.31-10.21-17.22-20.43-34.42-30.66-51.62-.26-.43-.51-.87-.72-1.21-1.57,0-2.91,.23-4.18-.04-4.25-.9-6.85-5.47-6.16-10.58,.61-4.5,4.13-7.76,8-7.38,4.37,.42,7.43,5.15,6.7,10.49-.21,1.55-.71,3.04-1.18,4.95,10.62,17.87,21.34,35.92,32.23,54.26,1.44-1.12,2.66-2.05,3.85-2.99,9.78-7.73,20.51-11.52,32.21-11.07,5.34,.2,10.52,1.5,15.59,3.54,1.23,.5,2.47,.96,3.64,1.42,2.44-4.66,20.19-50.68,21.19-54.91-.73-1.18-1.59-2.39-2.28-3.74-3.34-6.46-1.32-14.86,4.33-18.18,5.46-3.21,12.03-.16,14.36,6.66,2.66,7.78-1.64,16.52-8.59,17.4-1.16,.15-2.35,.02-3.39,.02-2.06,3.51-18.94,46.46-21.55,54.79,.59,.58,1.2,1.33,1.91,1.84,11.04,7.94,18.85,19.16,23.45,33.64,.26,.83,.57,1.64,.88,2.45,.06,.15,.18,.26,.51,.72,.63-.07,1.5-.03,2.3-.28,29.24-9.11,58.47-18.24,87.71-27.39,.85-.27,1.66-.68,2.53-1.04,.74-1.93,.27-3.9,.33-5.81,.46-15.06,10.83-27.25,23.33-27.19,13.33,.07,22.55,12.73,23.34,26,.86,14.52-7.31,27.43-19.24,29.97-9.68,2.06-19.13-3.16-24.13-13.37-.74-1.52-1.4-3.09-2.07-4.57-3.33,.42-87.79,26.61-92.83,28.8Zm-53.42,75.51c27.47,.14,50.35-26.85,50.44-60.69,.08-31.94-20.98-60.85-50.2-60.98-28.88-.14-50.7,28.31-50.66,60.99,.04,31.97,21.5,60.8,50.42,60.69Z"/><path class="d" d="M1185.87,386.93c3.97-5.6,8.27-10.94,13.21-15.46,4.96-4.54,10.26-8.34,15.98-11.3,5.71-2.96,11.64-5.01,17.79-6.21,6.12-1.2,12.27-1.29,18.69-.9,1.28-7.48,1.69-14.68,2.36-21.87-1.41-1.06-2.71-1.9-3.88-2.95-4.7-4.18-6.56-11.4-4.72-18.06,1.82-6.57,7.13-11.14,12.82-11.02,6.21,.13,11.69,5.65,12.91,12.99,1.22,7.39-2.03,14.91-7.82,17.91-1.33,.69-2.76,1.14-4.06,1.66-1.31,5.28-2.4,17.27-1.97,21.98,1.59,.49,3.27,1.05,4.96,1.52,29.54,8.22,52.29,37.95,56.99,73.5,.32,2.44,.68,4.87,1.06,7.58,1.04,.16,2.03,.48,3.01,.43,13.11-.61,26.22-1.28,39.33-1.93,1.77-.09,3.54-.17,5.3-.25,17.97-.84,35.94-1.67,53.92-2.54,2.79-.14,5.58-.45,8.54-.7,.61-1.86,1.1-3.7,1.8-5.41,2.82-6.86,7.52-10.54,13.79-10.46,6.28,.08,10.96,3.9,13.59,10.84,3.26,8.6,.19,18.97-6.74,23.36-7.18,4.54-15.92,1.54-19.98-6.91-.8-1.67-1.41-3.48-2.23-5.54-36.48,1.8-72.97,3.61-109.27,5.4-1.55,2.1-1.1,4.35-1.19,6.41-.4,10.06-2.23,19.71-5.4,29-1.06,3.12-2.37,6.11-3.56,9.17-.43,1.1-.83,2.21-1.23,3.26,2.79,2.78,79.48,57.72,83.87,60.09,3.73-4.81,8.31-7.75,13.97-7.65,4.29,.08,8.09,1.78,11.34,5.19,6.53,6.86,7.97,18.25,3.46,27.14-4.42,8.72-13.32,12.46-21.19,8.83-4.63-2.13-7.97-5.99-9.99-11.45-1.96-5.3-1.77-10.73-.41-16.18-.82-1.97-2.46-2.57-3.81-3.53-20.15-14.44-40.32-28.85-60.48-43.26-5.2-3.72-10.4-7.43-15.61-11.13-1.26-.9-2.55-1.73-3.9-2.65-3.01,4.12-5.74,8.32-8.87,12.02-3.15,3.72-6.52,7.24-10.12,10.3-3.6,3.06-7.46,5.77-11.44,8.03-3.98,2.25-8.21,3.95-12.42,5.51-4.09,1.5-8.33,2.22-12.6,2.69-4.42,.49-8.81,.54-13.24,.04-4.42-.49-8.8-1.24-13.04-2.74-4.21-1.49-8.34-3.34-12.7-5.12-.48,.95-.99,1.78-1.37,2.7-8.54,20.62-21.31,54.06-22.43,58.76,.83,1.05,1.79,2.14,2.63,3.35,4.15,5.98,5.17,12.73,2.79,19.95-2.47,7.49-7.34,11.6-13.9,12.11-9.29,.72-16.27-8.15-16.82-17.74-.72-12.46,7.45-20.42,14.69-20.8,1.9-.1,3.82-.02,5.71-.02,2.01-3.6,22.71-56.61,23.97-61.49-23.01-16.84-36.08-41.49-38.47-74.04-1.76-1.07-3.41-.7-4.98-.72-14.6-.17-29.19-.28-43.79-.42-23.74-.23-47.47-.46-71.21-.69-1.47-.01-2.94,0-4.55,0-.7,1.66-1.27,3.28-2.02,4.77-2.65,5.33-6.6,8.13-11.72,7.93-5.12-.2-8.98-3.27-11.31-8.79-3.15-7.44-.71-16.7,5.36-20.79,6.04-4.06,13.85-1.64,17.45,5.51,.83,1.66,1.43,3.49,2.11,5.19,3.44,.56,120.16,1.68,124.09,1.16,.86-2.14,.62-4.68,.94-7.07,.57-4.21,.95-8.46,1.7-12.62,1.73-9.65,4.95-18.59,9.23-26.99,.6-1.18,1.16-2.41,1.81-3.77-.62-.76-1.08-1.44-1.64-1.98-32.92-31.47-65.85-62.93-98.74-94.35-1.38,.59-2.46,1.13-3.58,1.5-5.47,1.81-10.94-2.38-11.92-9.09-.93-6.39,3-12.57,8.41-13.2,5.72-.67,10.38,4.41,10.4,11.4,0,1.59-.15,3.17-.22,4.64,3.33,3.9,97.4,93.67,100.58,95.94Zm59.03,141.6c37.04,.4,70.01-35.96,70.2-84.42,.19-46.97-31.28-85.11-70.08-85.17-39.8-.06-70.44,39.19-70.43,84.76,0,47.02,31.92,85.22,70.32,84.83Z"/><path class="d" d="M374.42,354.17c-15.35,18.71-30.49,37.15-45.62,55.61-.5,.61-.91,1.33-1.33,1.94,9.64,16.8,7.14,11.09,13.4,30.51,3.36-.2,59.51-14.84,64.4-16.82,.21-1.6,.33-3.36,.66-5.06,2.4-12.41,13.16-16.97,21.1-11.95,5.19,3.28,8.43,10.48,7.81,17.24-.65,7.1-4.82,13.27-10.3,15.26-5.81,2.1-12.14-.31-15.86-6.12-.89-1.39-1.63-2.91-2.52-4.5-.79,.06-1.53,.02-2.23,.2-20.71,5.43-41.42,10.88-62.35,16.39-.08,1.22-.27,2.25-.19,3.24,.75,10.09-.33,19.87-3.32,29.34-.1,.32-.14,.68-.17,1.03-.01,.16,.06,.33,.18,.89,2.16,1.64,4.76,2.79,7.35,4.08,1.06-.82,2-1.69,3.03-2.32,4.42-2.67,9.56-.31,11.37,5.17,1.8,5.45-.59,11.37-5.34,13.16-4.41,1.67-9.01-1.52-10.22-7.15-.33-1.53-.44-3.13-.71-5.08-2.25-1.24-4.63-2.55-7.19-3.97-.71,1.15-1.37,2.06-1.88,3.09-6.31,12.84-15.18,22.07-26.69,27.6-.68,.33-1.37,.67-2.03,1.06-.25,.15-.42,.47-.63,.71,.47,3.94,9.86,39.66,11.8,44.8,1.31,.29,2.76,.53,4.17,.93,4.97,1.4,8.47,6.51,8.68,12.57,.22,6.4-2.94,11.81-8.02,13.74-4.77,1.81-10.01-.48-12.75-5.58-2.73-5.09-2.4-11.77,.9-16.36,.95-1.33,2.1-2.45,3.37-3.91-3.93-14.83-7.86-29.69-11.81-44.6-3.83-.66-7.22,1.18-10.74,.99-3.51-.18-7.03-.04-10.71-.04-.28,1-.62,1.96-.83,2.97-4.49,21.14-17.08,88.75-17.45,93.81,.89,.71,1.87,1.44,2.82,2.25,5.64,4.84,7.75,13.3,5.19,20.8-2.56,7.48-8.6,11.7-15.25,10.64-6.67-1.06-11.76-7.45-12.44-15.7-.52-6.29,2.5-15.44,10.57-18.09,1.69-.56,3.44-.85,5.45-1.33,6.07-31.98,12.15-63.99,18.28-96.28-.78-.47-1.36-.98-2.02-1.21-9.59-3.28-17.81-9.28-24.68-17.99-.3-.38-.68-.67-1.1-1.09-1.56,.16-2.49,1.67-3.59,2.75-19.34,18.95-38.67,37.92-58,56.89-10.75,10.55-21.5,21.1-32.25,31.66-1.13,1.11-2.23,2.28-3.45,3.54,.6,1.93,1.27,3.69,1.7,5.53,2.03,8.67,.49,16.33-5.12,22.3-5.6,5.96-12.12,7.09-18.96,3.43-9.13-4.88-12.93-18.06-8.45-28.81,5.21-12.49,17.11-14.24,24.56-8.94,1.26,.9,2.44,1.95,3.63,2.9,3.12-2.21,61.17-58.78,94.64-92.21,.89-.89,1.7-1.89,2.74-3.06-5.29-8.74-8.61-18.34-10.24-29.06-5.45-.69-10.67,.65-15.89,1.08-5.11,.42-10.28,.55-15.13,1.6-.86,1.52-1.43,2.79-2.2,3.83-2.59,3.47-6.68,3.67-9.49,.56-2.63-2.91-2.93-7.78-.68-11.09,2.38-3.5,6.59-4.04,9.47-1.11,.89,.91,1.6,2.08,2.62,3.43,10.03-1.05,20.29-1.64,30.51-3.14,.4-5.67,.61-10.98,1.18-16.24,.56-5.13,1.95-10.02,3.7-14.76,1.81-4.9,3.98-9.56,6.87-13.63,2.76-3.89,5.79-7.51,8.91-11.52-2.39-3.96-4.81-7.94-7.21-11.91-1.45,.29-2.6,.7-3.75,.73-6.61,.18-10.09-6.24-9.98-11.53,.13-6.61,4.64-11.63,10.2-11.17,5.24,.43,9.31,6.14,8.6,12.44-.25,2.23-1.18,4.34-1.87,6.75,1.22,3.37,4.54,8.9,7.35,12.09,22.98-15.85,44.91-13.73,65.77,6.4,15.74-19.19,31.38-38.26,47.17-57.5-.81-1.7-1.57-3.18-2.25-4.7-4.49-10.07-2.8-22.57,4.07-30.37,6.77-7.69,17.01-9.06,24.98-3.28,7.31,5.31,11.37,15.43,9.87,26-1.38,9.79-7.63,17.77-15.73,20.17-5.14,1.52-9.94,.59-14.57-2.25-1.17-.72-2.29-1.55-3.92-2.66Zm-86.38,161.57c25.48,.78,49.62-24.03,49.87-59.14,.23-32.92-21.44-59.9-49.17-60.07-27.96-.17-49.59,27.01-49.65,59.49-.06,34.1,23.11,59.9,48.95,59.72Z"/><path class="d" d="M1313.64,65.33c8.89,20.37,17.68,40.22,26.59,60.36,7.58-4.14,15.18-5.9,23-5.33,1.2-1.44,1.19-3.07,1.3-4.63,.99-14.18,1.96-28.36,2.97-42.53,.4-5.67,.89-11.33,1.32-17,.05-.7,0-1.4,0-2.35-1.26-.83-2.56-1.6-3.78-2.52-7.66-5.78-7.74-19.19-.17-25.06,6.03-4.67,14.16-2.11,17.52,5.52,3.28,7.44,.7,16.83-5.64,20.37-1.33,.74-2.78,1.17-4.56,1.9-1.21,7.03-1.17,14.51-1.84,21.89-.67,7.42-1.28,14.86-1.64,22.32-.35,7.41-1.57,14.77-1.16,22.16,3.94,1.7,7.77,3.02,11.35,5.01,3.44,1.92,6.62,4.54,10.04,6.94,1.87-1.42,3.07-3.66,4.53-5.78-.21-1.54-.55-3.09-.61-4.66-.2-4.82,2.75-8.69,6.64-8.83,3.85-.14,7.07,3.64,7.11,8.34,.03,4.72-3.05,8.42-7.05,8.34-1.16-.02-2.32-.34-3.57-.54-1.8,1.62-3.11,3.74-4.46,5.96,2.28,3.75,4.65,7.36,6.74,11.19,2.19,4.03,3.81,8.46,4.73,13.16,.88,4.47,1.47,9.03,2.24,13.83,3.47,.95,7.15,.28,10.79,.38,3.54,.09,7.08,0,10.62-.05,3.67-.04,7.35-.1,11-.15,.65-1.54,1.12-2.84,1.71-4.05,2.42-4.89,7.1-6.95,11.47-5.12,4.14,1.74,6.69,6.7,6.25,12.19-.41,5.19-3.91,9.56-8.38,10.14-3.65,.47-6.66-1.22-8.81-4.83-.77-1.29-1.3-2.78-1.94-4.16-3.46-.63-28.14-.56-32.91,.14-.59,3.3-1.08,6.76-1.85,10.13-.77,3.39-1.8,6.7-2.7,9.99,2.66,2.65,54.43,39.2,59.69,42.15,.97-.9,1.96-1.95,3.06-2.8,4.24-3.25,8.64-3.51,12.94-.34,4.47,3.29,6.36,8.29,5.69,14.52-.62,5.83-3.42,9.79-7.97,11.69-8.37,3.5-16.48-4.38-16.06-14.76,.06-1.4,.4-2.78,.66-4.49-.64-.59-1.26-1.32-1.98-1.83-18.72-13.16-37.45-26.3-56.18-39.44-.38-.26-.8-.43-1.42-.76-.46,.56-1.04,1.09-1.42,1.77-4.43,8.02-10.19,14.22-17.3,18.63-.63,.39-1.17,.99-1.9,1.62,12.97,39.06,25.9,77.99,38.91,117.14,1.14-.06,2.13-.1,3.11-.18,7.95-.63,15.83,6.21,16.01,17.69,.14,9.17-5.08,16.51-13.02,18-6.83,1.29-14.08-4.38-16.02-12.61-1.69-7.16-.15-13.34,4.26-18.48,.83-.97,1.76-1.83,2.59-2.68-.85-4.2-36.33-111.43-38.78-117.18-.45-.03-1.06-.26-1.56-.07-6.15,2.26-12.41,2.94-18.8,2.16-.43-.05-.87,.06-1.57,.12-.28,.86-.69,1.76-.88,2.74-1.73,9-3.41,18.02-5.15,27.27,.62,1.04,1.37,2.12,1.96,3.31,1.63,3.33,.83,7.36-1.79,9.35-2.45,1.86-5.75,1.1-7.5-1.73-1.85-2.98-1.38-7.17,1.15-9.48,.81-.73,1.8-1.17,3.06-1.96,2.16-9.76,3.9-19.94,5.77-30.42-7.43-2.64-13.9-6.34-19.41-12.19-5.52-5.86-9.56-12.99-12.3-21.07-2.13-.36-3.67,.88-5.33,1.48-1.54,.56-3.04,1.28-4.62,1.96-.3,1.5-.51,2.89-.86,4.23-1.16,4.47-4.81,7.38-8.48,6.82-3.8-.58-6.76-4.36-6.99-8.95-.23-4.73,2.14-8.71,5.94-9.97,2.29-.75,4.39-.2,6.31,1.37,.97,.79,1.83,1.76,2.89,2.79,1.09-.36,2.23-.67,3.33-1.11,2.07-.84,4.12-1.75,6.35-2.71-.71-6.22-1.98-12.11-1.54-18.17,.43-5.87,1.34-11.6,3.16-17.11,1.88-5.68,4.47-10.8,7.74-15.45,3.17-4.51,7.02-8.06,10.99-11.26-1.36-4.65-24.2-56.42-26.51-60.12-1.06,.28-2.19,.66-3.34,.85-7.36,1.24-13.44-1.46-17.76-8.89-5.23-8.98-3.7-21.45,3.32-28.37,7.16-7.07,17.73-6.18,24.03,2.02,6.23,8.1,6.3,20.46,.11,28.62-.98,1.29-2.2,2.32-3.41,3.58Zm46.59,158.84c19.92,.3,41.19-18.62,41.26-49.93,.06-29.52-19.6-50.2-41.63-50.08-23.1,.13-41.26,22.55-41.27,49.97-.01,28.62,19.43,50.36,41.64,50.03Z"/><path class="d" d="M1206.83,65.82c-.35,.83-.78,1.57-.99,2.4-6.01,23.6-11.99,47.2-17.96,70.72,4.23,3.19,8.43,5.83,12.1,9.28,3.57,3.36,6.61,7.55,10.15,11.69,.3-.14,1.01-.33,1.58-.77,13.04-10.07,26.06-20.16,39.08-30.26,.24-.19,.43-.48,.83-.95-.12-1.73-.32-3.64-.38-5.55-.2-6.02,3.21-10.88,7.51-12.41,4.74-1.68,9.78,.8,12.21,5.87,2.24,4.67,1.71,10.9-1.26,14.92-3.12,4.23-8.32,5.51-12.52,2.98-1.3-.78-2.47-1.86-3.64-2.76-4.08,2.33-39.07,29.54-41.69,32.42,1.46,4.38,3.21,8.7,4.35,13.24,1.14,4.57,1.66,9.36,2.48,14.2q1.95,.85,5.02,.55c.67-.95,1.36-2.11,2.2-3.06,1.78-2,4.48-2.33,6.58-.96,2.12,1.38,3.44,4.48,3.04,7.13-.47,3.11-2.49,5.5-5.06,5.89-1.87,.29-3.53-.43-4.81-2.08-.79-1.02-1.4-2.25-2.1-3.41h-4.77c-.86,5.08-1.41,10.01-2.57,14.72-1.12,4.55-2.87,8.87-4.38,13.37,.29,.4,.51,.91,.86,1.16,21.03,15.08,42.06,30.14,63.18,45.25,1.18-.73,2.18-1.43,3.23-1.97,4.14-2.13,8.59,.15,10.17,5.15,1.55,4.91-.77,10.34-5.03,11.79-4.24,1.44-8.47-1.59-9.41-6.88-.27-1.53-.16-3.17-.22-4.83-.03-.08-.09-.25-.16-.39-.08-.15-.15-.33-.27-.42-20.92-14.97-41.84-29.93-62.77-44.88-.37-.26-.81-.36-1.47-.64-.75,.95-1.58,1.9-2.3,2.96-7.56,10.98-17.14,17.83-28.79,20.23-6.9,1.42-13.81,1.11-20.59-1.25-1.41-.49-2.82-.96-4.44-1.51-.43,.71-.94,1.34-1.23,2.09-4.92,12.53-9.82,25.08-14.71,37.63-.18,.47-.23,1.02-.38,1.7,.53,1.14,1.22,2.31,1.64,3.6,1.33,4.06-.3,8.68-3.52,10.22-3.3,1.58-7.06-.39-8.42-4.41-1.39-4.11,.49-8.91,4.11-10.26,1.1-.41,2.29-.45,3.31-.64,2.68-5.43,15.04-37.43,15.93-41.16-17.66-14.77-14.82-13.51-23.73-29.73-13.43,6.02-26.93,12.08-40.42,18.14-.3,1.83-.47,3.4-.81,4.92-1.02,4.52-4.36,7.67-8.07,7.71-3.5,.04-6.97-3-8.08-7.06-1.13-4.17,.1-8.81,3.04-11.42,2.97-2.63,6.81-2.69,9.9-.06,.95,.81,1.8,1.81,2.63,2.66,3.63-.87,37.1-15.86,40.89-18.34-1.19-6.44-2.59-12.98-2.47-19.76,.11-6.61,1.25-13.03,2.8-19.25-2.64-2.38-9.86-5.94-19.22-9.54-.89,.54-1.77,1.26-2.73,1.62-2.43,.92-4.95-.6-5.78-3.34-.79-2.63,.08-5.67,2-6.97,2.12-1.43,4.9-.71,6.26,1.78,.55,1.01,.82,2.25,1.4,3.89,6.13,2.83,12.55,5.8,19.17,8.86,1.48-2.95,2.73-5.76,4.24-8.34,1.62-2.75,3.36-5.42,5.29-7.85,1.83-2.3,3.88-4.38,5.98-6.31,2.09-1.92,4.36-3.55,6.7-5.43-2.05-6.45-4.51-12.47-6.82-18.6-1.26-.34-2.43-.55-3.54-.97-3.93-1.5-5.78-6.08-4.36-10.59,1.24-3.91,5.11-6.01,8.39-4.56,3.61,1.6,5.34,6.66,3.7,11.01-.42,1.12-1.1,2.09-1.83,3.44,2.02,6.08,4.36,12.17,6.85,18.47,.82-.11,1.56-.03,2.2-.31,9.87-4.38,19.88-4.61,30-1.48,.14,.04,.29,.04,.5,.06,1.6-1.1,1.56-3.3,2.02-5.07,4.88-19.02,9.68-38.07,14.5-57.11,.9-3.56,1.8-7.12,2.74-10.87-1.22-1.22-2.37-2.26-3.42-3.45-6.61-7.52-4.62-20.58,3.82-24.62,4.82-2.3,9.34-1.33,13.11,3.01,3.76,4.34,4.84,9.78,3.12,15.66-1.65,5.65-5.1,9.02-10.12,9.78-1.16,.18-2.34,.19-3.59,.28Zm-79.91,126.84c-.54,27.09,17.39,53.37,43.76,53.6,23.94,.21,43.98-22.45,44.2-52.58,.23-31.61-21.01-53.54-43.8-53.62-24.67-.09-44.2,24.19-44.17,52.6Z"/><path class="d" d="M873.4,610.38c-7.67,0-15.34,0-23,0-1.47,0-2.96,0-4.42-.2-6.22-.82-10.82-6.37-11.53-13.9-.15-1.59-.17-3.2-.17-4.79-.01-17.79-.01-35.59,0-53.38,0-1.42,.07-2.84,.11-4.27,.18-6.14,3.94-13.32,11.48-14.65,1.16-.2,2.35-.2,3.53-.2,9.88-.01,19.76-.01,29.64,0,1.18,0,2.38-.04,3.52,.22,2.92,.66,4.76,3.44,4.63,6.76-.13,3.33-2.17,5.78-5.17,6.11-1.17,.13-2.36,.07-3.54,.07-9.29,0-18.58-.02-27.87,.01-4.99,.01-5.36,.41-5.37,6.27-.03,17.44-.01,34.87,0,52.31,0,.89-.01,1.78,.05,2.67,.19,2.68,.8,3.47,2.95,3.7,1.03,.11,2.06,.08,3.09,.08,14.75,0,29.49,.01,44.24,0,6.12,0,6.22-.13,6.22-7.38,0-9.61,0-19.22,0-28.83,0-1.42-.03-2.86,.16-4.26,.38-2.8,2.2-4.8,4.46-5.14,2.58-.39,4.76,1,5.67,3.88,.41,1.29,.59,2.76,.59,4.15,.04,11.39,.06,22.78,0,34.16-.03,6.58-2.38,11.63-7.23,14.84-2.27,1.5-4.78,1.73-7.3,1.74-7.52,.02-15.04,.01-22.56,.02-.74,0-1.47,0-2.21,0Z"/><path class="d" d="M75.14,356.1c13.62-15.07,28.89-17.76,45.58-8.33,2.39-2.95,12.62-21.16,16.67-29.64-.3-1.48-.77-3-.87-4.55-.22-3.25,1.69-5.95,4.29-6.36,2.65-.42,5.1,1.52,5.72,4.55,.62,3.04-.74,6.3-3.22,7.3-1.09,.44-2.31,.42-3.51,.61-2.4,3.18-14.61,25.35-16.39,29.85,2.08,2.32,4.4,4.52,6.32,7.14,2.03,2.78,3.88,5.83,5.45,9.02,1.49,3.03,2.5,6.39,3.83,9.86,3.8-.1,7.43-1.67,11.15-2.49,3.62-.8,7.21-1.82,10.81-2.76,3.74-.98,7.47-1.98,11.31-3,.52-1.54,.91-3.05,1.53-4.42,1.49-3.31,4.63-4.92,7.51-3.99,2.94,.95,5.06,4.22,5.08,7.83,.02,3.62-2.04,6.91-4.99,7.91-2.14,.72-4.12,.17-5.83-1.47-.91-.87-1.64-2.01-2.62-3.24-11.04,2.68-22.09,5.53-33.06,8.56-.13,5.62,.16,10.98-.5,16.17-.64,5.03-2.24,9.88-3.52,15.23,1.63,1.96,4.15,3.07,6.39,4.66,2.28,1.63,4.62,3.14,7,4.75,.99-.28,1.96-.7,2.96-.79,2.05-.18,3.8,1.62,4.04,3.95,.19,1.92-.84,3.99-2.33,4.69-1.88,.88-4.26,.03-4.74-2.36-.57-2.84-2.11-4.04-3.95-5.24-3.61-2.36-7.18-4.81-10.93-7.34-1.45,2.09-2.68,4.06-4.09,5.83-1.53,1.92-3.14,3.77-4.87,5.42-1.61,1.53-3.39,2.84-5.18,4.07-1.77,1.22-3.65,2.21-5.59,3.37,.42,5.35,2.13,10.1,3.19,15.24,1.03,.56,2.14,1.02,3.13,1.71,2.38,1.66,3.33,4.92,2.39,7.8-.96,2.93-3.46,4.51-6.11,3.86-3.03-.74-4.9-4.72-3.73-8.2,.49-1.45,1.3-2.74,1.96-4.08-.59-5.05-2.27-11.81-3.88-15.43-4.24,1.08-8.67,1.6-13.03,.82-4.18-.74-8.27-2.15-12.4-3.27-2.05,3.6-17.43,42.13-21.53,53.98,.69,.98,1.48,2,2.18,3.11,2.57,4.09,2.85,9.32,.76,13.51-2.12,4.24-6.06,6.34-10.25,5.47-3.98-.83-7.03-4.58-7.85-9.65-1.01-6.26,2.81-12.67,8.17-13.52,1.44-.23,2.92-.03,4.59-.03,2.38-4.22,3.8-9.09,5.67-13.68,1.83-4.46,3.56-8.99,5.33-13.48,1.83-4.66,3.71-9.29,5.49-13.98,1.7-4.49,3.8-8.77,5-13.43-11.97-11.52-10.38-11.79-15.02-19.32-4.16,1.38-7.96,4.08-11.96,6.16-3.92,2.04-7.81,4.2-11.68,6.37-3.99,2.24-8.12,4.13-11.9,6.73-.12,1.79-.12,3.39-.36,4.94-.72,4.61-3.77,7.89-7.62,8.32-3.44,.39-7.05-2.35-8.43-6.39-1.37-4.03-.39-8.8,2.41-11.63,2.81-2.84,6.76-3.21,9.88-.81,.98,.75,1.84,1.75,2.93,2.8,4.02-1.45,7.73-3.99,11.61-6.04,4.05-2.14,8.06-4.39,12.09-6.59,3.88-2.12,7.77-4.25,11.87-6.49-.79-3.96-1.76-7.66-2.22-11.46-.45-3.67-.37-7.44-.53-11.47-1-.36-2.08-.74-3.29-1.17-.96,.85-1.84,1.8-2.84,2.46-2.41,1.58-5.2,.47-6.4-2.43-1.18-2.84-.09-6.19,2.44-7.52,1.64-.86,3.56-.48,4.87,1.22,.78,1.02,1.33,2.3,2.07,3.62,1.05,.21,2.17,.43,3.39,.67,1.19-3.89,2.11-7.62,3.46-11.12,1.29-3.35,3.01-6.47,4.51-9.62-.03-.27-.04-.45-.08-.61-.05-.17-.11-.35-.21-.46-1.11-1.16-2.21-2.34-3.36-3.46-13.86-13.53-27.74-27.05-41.7-40.67-1.2,.39-2.3,.83-3.43,1.08-2.97,.67-6.04-1.68-6.85-5.16-.78-3.33,.63-7.05,3.22-8.5,2.8-1.58,6.15-.38,7.67,2.91,.48,1.04,.67,2.33,.8,3.53,.13,1.22,.03,2.47,.03,3.75,3.09,3.78,42.98,42.57,46.13,44.81Zm-7.44,31.36c-.49,21.05,13.87,41.98,34.66,42.1,17.88,.1,34.82-16.81,34.79-42-.03-25.1-17.02-41.71-34.49-41.84-19.34-.15-35.19,19.05-34.96,41.75Z"/><path class="d" d="M1034.5,341.46c-1.66-1-3.31-.6-4.9-.6-16.35-.03-32.7-.02-49.05-.02-1.33,0-2.66,.06-3.97-.09-1.99-.23-2.94-1.37-3.04-3.74-.1-2.3-.11-4.62,0-6.93,.12-2.36,1.07-3.42,3.12-3.63,1.32-.13,2.65-.08,3.97-.08,16.2,0,32.4,0,48.61,0,1.6,0,3.21,0,5.08,0,.2-1.67,.33-3.01,.51-4.35,.43-3.12,1.92-4.18,4.42-3.04,1.51,.69,2.97,1.55,4.45,2.36,4.42,2.43,8.84,4.86,13.26,7.3,.94,.52,1.91,.96,2.79,1.6,2.53,1.85,2.5,4.84-.05,6.7-.75,.55-1.57,.97-2.38,1.41-5.22,2.87-10.45,5.74-15.68,8.6-.67,.37-1.33,.77-2.02,1.09-3.04,1.38-4.42,.36-4.83-3.51-.11-1.04-.2-2.08-.29-3.07Z"/><path class="d" d="M1000.59,360.82c1.66,1.1,3.31,.69,4.9,.69,16.34,.03,32.68,.02,49.02,.02,1.32,0,2.66-.05,3.97,.1,1.99,.22,3,1.33,3.15,3.65,.14,2.29,.14,4.62,0,6.91-.14,2.27-1.22,3.5-3.13,3.73-1.31,.16-2.65,.1-3.97,.1-16.34,0-32.68,0-49.02,.02-1.59,0-3.23-.41-4.91,.63-.13,1.33-.2,2.73-.43,4.1-.38,2.31-1.7,3.35-3.54,2.83-.71-.2-1.39-.57-2.06-.93-5.9-3.22-11.79-6.45-17.68-9.7-.8-.44-1.6-.92-2.29-1.56-1.52-1.41-1.47-4.1,.09-5.49,.7-.62,1.51-1.09,2.31-1.54,5.88-3.26,11.78-6.49,17.67-9.72,.4-.22,.84-.35,1.22-.61,2.18-1.48,4.27,.62,4.37,3.19,.05,1.22,.22,2.43,.32,3.57Z"/><path class="d" d="M871.45,570.77c1.05-1.71,1.93-3.06,2.74-4.49,9.65-17.02,19.29-34.04,28.94-51.06,.75-1.32,1.46-2.69,2.33-3.89,1.94-2.66,4.9-3.12,7.16-1.25,2.26,1.87,2.98,5.34,1.68,8.52-.45,1.11-1.08,2.11-1.67,3.14-11.72,20.69-23.44,41.39-35.17,62.07-.66,1.17-1.29,2.39-2.07,3.45-2.55,3.48-6.32,3.29-8.73-.4-.54-.83-.98-1.77-1.45-2.68-4.19-8.16-8.37-16.33-12.54-24.5-.46-.91-.93-1.82-1.32-2.77-1.42-3.51-.67-7.04,1.85-8.85,2.42-1.75,5.51-.86,7.4,2.17,.62,.99,1.13,2.08,1.67,3.14,2.48,4.84,4.94,9.69,7.43,14.52,.45,.87,1.01,1.67,1.74,2.86Z"/><path class="d" d="M545.44,94.01c-5.43,3.79-9.31,9.93-14.93,13.19-.1,.06-.28-.08-.68-.21-.73-3.68,.8-7.09,1.3-10.64,.5-3.49,1.19-6.93,1.83-10.56-.97-1.16-1.88-2.29-2.82-3.38-2.13-2.49-3.99-5.23-5.39-8.4-3.75-8.52-3.69-17.02,.17-25.46,2.33-5.08,5.68-9.05,9.57-12.38,5.72-4.91,12.1-8.06,18.91-9.98,13.54-3.83,26.89-3.14,40.04,2.41,4.76,2.01,9.19,4.78,13.22,8.47,2.96,2.71,5.59,5.81,7.6,9.59,5.25,9.83,5.25,19.71,.04,29.55-2.5,4.72-5.9,8.39-9.74,11.47-6.09,4.9-12.82,7.93-19.97,9.68-12.39,3.02-24.61,2.25-36.65-2.47-.83-.33-1.68-.57-2.52-.85Zm21.64-65.71c-3.06,.5-7.18,.94-11.22,1.9-6.56,1.56-12.73,4.45-18.27,9.06-3.56,2.96-6.65,6.49-8.79,11.08-3.47,7.44-3.43,14.91,.06,22.33,1.7,3.6,3.93,6.72,6.73,9.09,4.47,3.79,9.14,7.09,14.43,9.08,10.19,3.83,20.53,4.68,31.02,2.65,7.33-1.42,14.31-4.17,20.6-9.11,3.5-2.74,6.55-6.03,8.91-10.22,2.98-5.28,3.89-11.09,2.9-17.3-.74-4.67-2.8-8.56-5.46-12-3.16-4.09-6.94-7.13-11.09-9.55-9.09-5.32-18.79-6.98-29.81-7.01Z"/><path class="d" d="M499.4,562.78c-1.47-.1-2.95-.08-4.4-.32-1.28-.22-2.26-1.28-2.32-2.81-.13-3.18-.16-6.39,.07-9.55,.15-2.02,1.55-2.88,3.29-2.46,.86,.21,1.67,.69,2.53,.87,1.29,.27,2.34-.38,3.01-1.69,.92-1.81,.93-3.74-.03-5.53-.68-1.27-1.73-1.96-3.03-1.67-1,.23-1.97,.74-2.97,.95-1.3,.26-2.4-.52-2.7-2.07-.68-3.5-.62-7.05-.04-10.55,.22-1.32,1.16-2.09,2.25-2.23,1.46-.19,2.94-.15,4.4-.24,1.17-.07,2.36-.09,3.51-.31,1.08-.21,1.74-1.47,1.52-2.78-.2-1.21-.65-2.37-.77-3.59-.27-2.72,1.66-5.04,4.09-5.08,2.42-.04,4.46,2.25,4.23,4.93-.1,1.21-.56,2.38-.76,3.59-.27,1.61,.42,2.83,1.8,3.02,1.46,.2,2.94,.17,4.41,.23,.88,.04,1.77-.01,2.65,.12,1.98,.29,2.88,1.35,3.07,3.77,.14,1.76,.04,3.55,.11,5.33,.04,1.23,.07,2.49,.3,3.69,.22,1.18,1.05,1.76,2,1.6,1.01-.17,1.97-.71,2.98-.92,1.62-.34,2.87,.48,3.73,2.14,.94,1.82,.99,3.67,.1,5.54-.81,1.71-2.02,2.6-3.65,2.33-1.01-.17-1.97-.69-2.97-.94-1.05-.26-2.17,.59-2.27,1.89-.17,2.11-.18,4.25-.23,6.38-.12,5.35-.81,6.22-5.14,6.26-1.17,.01-2.37,.01-3.52-.23-1.74-.36-2.5-1.79-2.17-3.87,.17-1.04,.56-2.03,.74-3.06,.28-1.55-.27-2.79-1.27-3.72-1.33-1.24-3.71-1.27-4.92,.13-.58,.67-.98,1.76-1.13,2.74-.12,.8,.25,1.71,.42,2.56,.75,3.83-.08,5.18-3.4,5.43-1.17,.09-2.36,.01-3.53,.01v.11Z"/><path class="d" d="M534.1,532.46c0-1.6-.11-3.21,.03-4.79,.17-2.08,1.14-3.29,2.84-3.42,2.2-.16,4.42-.2,6.62-.03,2.5,.19,3.36,1.74,2.82,4.65-.13,.69-.43,1.33-.57,2.01-.35,1.74,.12,3.15,1.32,4.19,1.31,1.13,3.26,1.15,4.56,0,1.17-1.02,1.74-2.38,1.35-4.16-.23-1.03-.57-2.03-.71-3.07-.22-1.6,.43-3.16,1.66-3.26,2.91-.24,5.85-.25,8.77-.08,1.07,.06,1.74,1.35,1.87,2.66,.16,1.58,.15,3.18,.21,4.78,.06,1.59,.04,3.2,.2,4.78,.13,1.31,1.21,2.14,2.26,1.87,1-.26,1.97-.77,2.98-.95,1.62-.29,2.86,.59,3.66,2.3,.88,1.86,.86,3.75-.08,5.56-.84,1.63-2.05,2.58-3.7,2.23-1.01-.22-1.97-.72-2.98-.92-1.11-.23-2.05,.62-2.17,2.02-.14,1.58-.13,3.19-.17,4.79-.03,1.24,.03,2.5-.08,3.73-.22,2.45-1.09,3.48-3.09,3.68-1.02,.11-2.06,.04-3.09,.07-1.03,.02-2.07-.03-3.09,.11-2.41,.32-3.03,1.45-2.45,4.29,.07,.34,.22,.66,.31,1,.57,2.04,.38,3.9-1.11,5.27-1.55,1.43-3.31,1.42-5.01,.5-1.31-.71-2.03-2.07-1.98-3.83,.02-.87,.17-1.78,.45-2.58,1-2.82,.19-4.54-2.9-4.7-1.77-.09-3.54,.01-5.3-.1-2.37-.16-3.28-1.12-3.44-3.8-.12-1.94-.13-3.92,.05-5.85,.24-2.65,1.57-3.68,3.67-3.11,.86,.24,1.69,.67,2.56,.8,1.48,.22,2.89-1.09,3.26-2.87,.73-3.5-1.01-6.76-4.25-5.74-.28,.09-.56,.22-.85,.3-3.2,.9-4.29-.06-4.49-4.04-.07-1.42-.01-2.84-.01-4.26h.07Z"/><path class="d" d="M567.08,28.3c11.02,.03,20.72,1.68,29.81,7.01,4.15,2.43,7.93,5.46,11.09,9.55,2.65,3.44,4.72,7.33,5.46,12,.99,6.21,.08,12.02-2.9,17.3-2.36,4.18-5.42,7.47-8.91,10.22-6.29,4.94-13.27,7.69-20.6,9.11-10.49,2.03-20.83,1.19-31.02-2.65-5.29-1.99-9.97-5.3-14.43-9.08-2.8-2.37-5.03-5.49-6.73-9.09-3.49-7.42-3.53-14.88-.06-22.33,2.14-4.59,5.23-8.12,8.79-11.08,5.55-4.61,11.71-7.5,18.27-9.06,4.04-.96,8.16-1.4,11.22-1.9Zm2.82,60.86c3.94-.52,7.92-.81,11.82-1.6,5.99-1.21,11.69-3.57,16.87-7.5,3.4-2.58,6.38-5.71,8.38-10.02,2.67-5.75,2.64-11.5-.01-17.24-1.54-3.32-3.72-5.93-6.22-8.19-3.09-2.79-6.48-4.9-10.13-6.4-13.86-5.72-27.73-5.66-41.55,.2-4.33,1.84-8.32,4.5-11.75,8.27-8.2,9.02-8.18,20.58,.03,29.57,2.87,3.13,6.16,5.46,9.71,7.26,7.29,3.7,14.93,5.29,22.84,5.65Z"/><path class="d" d="M712.78,252.56c5.88,.65,11.12-.55,16.39-1.22,4.98-.63,9.93-1.75,14.96-1.46,1.52,.09,2.91-.3,4.25-1.13,5.47-3.37,11.24-3.85,17.23-2.73,6.26,1.17,12.54,2.16,18.82,3.2,7.24,1.2,14.38,.5,21.29-1.54,.98-1.88,1.63-3.78,2.75-5.07,1.13-1.31,2.69-2.13,4.14-2.97,7.05-4.06,14.12-8.07,21.18-12.08,1.07-.6,2.13-1.24,3.24-1.69,3.12-1.28,5.89-.13,7.68,3.2,.64,1.19,1.11,2.5,1.62,3.79,6.1,15.6,12.18,31.2,18.27,46.81,.5,1.29,.94,2.61,1.45,3.89,1.52,3.89-.24,8.28-3.01,10.01-.65,.41-1.32,.8-1.98,1.18-7.46,4.24-14.93,8.49-22.4,12.73-.4,.23-.82,.42-1.21,.66-2.56,1.57-5.1,1.81-7.5-.34-1.21-1.08-2.39-1.06-3.75-.61-3.45,1.12-6.64,2.83-9.7,5.52,.24,4.15,1.13,8.35-.62,12.42-1.64,3.79-4.12,6.4-7.37,8.44,.91,4.72,.78,9.21-1.47,13.34-2.29,4.2-5.69,6.02-9.83,6.71-.24,1.21-.51,2.38-.69,3.56-1.08,7.22-6.16,12.52-11.54,12.6-.42,0-.83,.25-1.2,.37-3.75,11.2-10.02,14.88-20.87,7.75-.81,1.08-1.68,2.22-2.54,3.37-4.12,5.5-7.45,6.33-12.95,2.83-2.46-1.57-4.85-3.42-7.05-5.49-6.62-6.24-13.17-12.6-19.67-19.01-4.79-4.73-9.52-9.55-14.2-14.45-2-2.09-3.88-4.38-5.64-6.76-3.28-4.46-5.39-9.41-3.29-15.53-2.73-6.11-7.32-9.24-11.95-12.43-.81,.33-1.51,.55-2.17,.89-2.23,1.15-4.31,.72-6.33-.73-2.41-1.73-4.82-3.44-7.23-5.17-5.32-3.81-10.67-7.59-15.97-11.44-4.95-3.6-5.8-7.37-2.9-13.32,6.81-13.94,13.69-27.83,20.54-41.74,.98-1.99,1.94-3.99,2.94-5.96,.46-.91,.93-1.83,1.5-2.63,1.9-2.65,4.51-3.42,7.19-2.1,1.08,.54,2.09,1.3,3.1,2.02,6.6,4.7,13.15,9.49,19.8,14.1,2.86,1.99,5.51,4.09,6.66,8.21Zm-3.45,9.83c-3.86,6.53-17.87,35.37-19.1,39.26,2.15,1.76,4.41,3.43,6.51,5.36,2.07,1.91,3.98,4.07,6.09,6.26,2.31-2.75,4.42-5.47,6.72-7.93,1.52-1.64,3.19-3.21,5-4.3,5.82-3.49,12.31-1.3,15.97,5.17,.66,1.16,1.19,2.42,1.96,4.01,3.99-1.29,7.8-.74,11.28,2.22,3.57,3.04,4.54,7.63,5.15,12.51,8.35,1.39,12.65,7.14,12.91,16.51,2.2,1.79,4.33,2.92,5.77,4.81,3.75,4.94,8.62,8,12.92,12,1.08,1.01,2.34,1.45,3.73,1.38,2.59-.13,4.3-2.74,3.8-5.84-.26-1.64-.97-2.97-2.05-3.99-.81-.76-1.67-1.46-2.52-2.16-8.4-6.92-16.8-13.82-25.19-20.75-.97-.8-1.98-1.58-2.81-2.57-1.5-1.79-1.6-4.36-.4-6.31,1.25-2.02,3.18-2.67,5.09-1.55,1.05,.62,2.01,1.47,2.98,2.27,8.65,7.1,17.31,14.18,25.93,21.33,1.99,1.65,4.1,2.82,6.47,3.2,3.78,.59,5.92-2.69,4.59-7-.63-2.04-1.69-3.74-3.14-5.06-.7-.64-1.46-1.2-2.19-1.8-9.4-7.67-18.8-15.33-28.19-23.02-1.21-.99-2.45-2.01-3.5-3.23-1.32-1.54-1.41-4.07-.44-5.9,1.09-2.03,3.18-2.89,5.01-1.86,1.19,.67,2.3,1.59,3.39,2.48,9.53,7.76,19.03,15.55,28.57,23.28,1.21,.98,2.51,1.97,3.89,2.4,2.86,.9,5.29-1.96,4.9-5.51-.18-1.65-.76-3.08-1.82-4.14-.91-.9-1.88-1.72-2.86-2.51-6.99-5.62-14.01-11.18-20.98-16.84-5.75-4.67-11.37-9.55-16.38-15.37-.64-.74-1.35-1.38-2.01-2.09-1.72-1.83-3.69-2.11-5.8-1.31-1.26,.48-2.52,1.02-3.72,1.68-3.48,1.93-7,3.77-10.37,5.95-3.34,2.16-6.87,3.18-10.57,3.42-2.96,.19-5.9-.27-8.69-1.53-3.87-1.75-5.32-5.74-3.68-10.29,.58-1.61,1.41-3.15,2.36-4.48,1.63-2.29,3.44-4.38,5.17-6.57,.47-.6,1.26-1.01,.87-2.45-6.81,.69-13.68,1.96-20.65,.83Zm21.52,13.98c3.82,.64,6.65,.11,9.36-1.57,3.01-1.86,6-3.8,9.1-5.41,2.83-1.46,5.77-2.66,8.72-3.72,3.62-1.3,7.01-.27,10.06,2.27,1.57,1.31,2.97,2.9,4.46,4.35,3.67,3.56,7.19,7.37,11.04,10.6,8.46,7.09,17.09,13.88,25.66,20.77,.47,.38,1.05,.58,1.69,.92,2.2-1.44,4.38-2.88,6.57-4.31,2.15-1.4,4.66-1.9,6.88-3.53-1.23-4.92-3.28-9.04-4.89-13.38-1.62-4.37-3.34-8.7-5.1-13-1.74-4.25-3.02-8.81-5.37-12.83-1.12,.19-2.14,.3-3.14,.53-8.16,1.89-16.33,2.39-24.58,.79-6.1-1.18-12.25-1.95-18.36-3.04-4.23-.76-8.16,.09-11.96,2.43-6.73,4.15-12.84,9.35-18.4,15.5-.5,.56-.87,1.29-1.74,2.61Zm84.8-27.24c2.95,9.18,17.26,45.27,19.21,48.58,3.11-.78,18.65-9.48,22.35-12.53-.2-.77-.32-1.65-.63-2.43-5.76-14.77-11.54-29.53-17.34-44.27-.29-.73-.84-1.3-1.36-2.07-7.46,4.31-14.82,8.27-22.22,12.73Zm-135.65,51.78c.67-1.04,1.08-1.56,1.38-2.16,7.12-14.51,14.22-29.03,21.32-43.55,.07-.15,.11-.34,.1-.51,0-.17-.07-.34-.11-.51-3.72-3.58-18.28-13.8-21.31-14.91-.48,.81-1.03,1.63-1.48,2.53-6.7,13.57-13.39,27.15-20.07,40.74-.43,.87-.66,1.88-1.1,3.15,7.08,5.07,14.01,10.04,21.26,15.23Zm45.8,50.7c4.55-7.1,8.82-13.65,12.82-20.45,1.11-1.9,1.56-4.2,1.54-6.58-.04-3.56-2.21-5.58-5.01-4.61-2.2,.76-3.94,2.27-5.32,4.5-3.52,5.7-7.12,11.34-10.67,17.02-.41,.66-.67,1.45-1.09,2.37,2.57,2.57,4.93,4.94,7.73,7.75Zm13.09,12.62c.54-.3,.89-.37,1.04-.61,3.97-6.19,7.93-12.38,11.84-18.63,.6-.97,1.04-2.17,1.29-3.35,.43-2.08-.14-3.86-1.57-5.18-1.3-1.2-2.81-1.4-4.15-.43-1.23,.89-2.4,2.08-3.29,3.44-3.56,5.45-7,11-10.46,16.55-.4,.65-.6,1.49-.91,2.29,2.15,2.28,4.04,4.46,6.21,5.92Zm-27.35-27.35c4.08-6.51,7.83-12.43,11.5-18.41,.5-.82,.81-1.92,.95-2.94,.59-4.03-2.31-6.98-5.5-5.55-.94,.42-1.83,1.17-2.58,1.98-3.42,3.67-6.57,7.67-9.21,12.2-.66,1.13-1.09,2.46-1.59,3.6,1.3,3.85,3.65,6.22,6.43,9.13Zm41.93,39.06c.35-.61,.84-1.48,1.34-2.34,2.78-4.79,4.96-9.98,6.89-15.33,.23-.64,.39-1.33,.48-2.02,.21-1.61-.32-2.95-1.36-3.57-1.15-.69-2.3-.59-3.31,.32-.57,.52-1.02,1.26-1.46,1.96-2.84,4.49-5.68,8.97-8.49,13.49-.49,.79-.79,1.75-1.23,2.73,2.09,2.11,4,3.94,7.14,4.75Zm16.2-14.45c-.79,2.89-2.18,4.6-2.08,7.17,.59,.58,1.14,1.15,1.72,1.67,.35,.31,.75,.58,1.15,.77,1.58,.74,3.21,.24,3.93-1.17,.78-1.54,.61-3.5-.61-4.8-1.08-1.15-2.32-2.07-4.11-3.64Z"/><path class="d" d="M196.09,185.07c-20.63,.42-38.22-20.6-38.19-46.14,.02-23.16,15.45-46.08,38.44-45.9,22.7,.17,37.97,22.68,37.98,45.94,0,26.05-17.94,46.56-38.23,46.1Zm35.36-45.67c.45-22.39-14.7-42.84-35.08-43.03-19.63-.18-35.45,18.81-35.66,42.39-.21,23.53,15.88,42.87,35.14,43.02,19.7,.15,35.79-19.41,35.61-42.38Z"/><path class="d" d="M1232.2,426.15c-.25,2.62-.52,4.89-.67,7.16-.22,3.19-.22,6.4-.57,9.57-.63,5.63-3.11,7.97-7.78,7.96-3.71,0-6.64-1.42-8.23-5.82-1.2-.57-2.47-1.03-3.63-1.75-2.02-1.25-2.71-3.17-2.14-5.75,.23-1.02,.61-2,.97-2.97,1.07-2.93,2.12-5.86,3.24-8.75,1.63-4.19,3.19-8.39,3.08-13.18-.02-.87,.15-1.79,.38-2.61,.28-.99,.62-2.02,1.13-2.85,2.19-3.49,5.25-3.36,8.43-2.89,2.92,.43,4.95,2.11,5.92,5.48,.34,1.17,.52,2.4,.87,4.05,4.01,2.71,8.23,5.56,12.69,8.56,4.53-2.51,8.71-5.78,13.12-8.59,.14-.84,.24-1.52,.38-2.2,.18-.86,.29-1.75,.59-2.54,1.52-4.03,4.48-5.46,9.86-4.85,3.29,.37,5.62,3.34,5.66,7.62,.04,5.19,1.57,9.68,3.3,14.21,1.11,2.9,2.17,5.84,3.2,8.78,.4,1.14,.8,2.31,.97,3.52,.29,2.12-.31,3.86-1.98,4.88-.65,.4-1.33,.86-2.03,1.01-1.12,.24-1.74,1.02-2.38,2.08-2.56,4.17-7.06,5.87-10.93,4.13-2.74-1.23-4.22-3.75-4.47-7.26-.29-4.07-.53-8.15-.8-12.22-.09-1.39-.22-2.77-.37-4.59-1.01,.42-1.84,.63-2.56,1.09-2.6,1.67-5.19,3.37-7.72,5.17-2.55,1.81-4.99,1.7-7.5-.1-2.41-1.72-4.87-3.33-7.33-4.93-.75-.49-1.58-.82-2.72-1.4Z"/><path class="d" d="M1279.06,500.95c0,.79,.16,1.74-.04,2.55-.28,1.16-.62,2.44-1.28,3.28-1.7,2.18-3.99,2.19-6.17,1.53-2.09-.63-3.06-2.65-3.24-5.15-.31-4.43-.57-8.86-.84-13.29-.54-8.86-1.07-17.72-1.59-26.58-.08-1.42-.2-2.85-.12-4.26,.16-2.74,1.58-4.58,3.79-5.19,4.05-1.12,6.64,1.07,6.98,6.08,.62,9.39,1.16,18.78,1.73,28.17,.26,4.25,.52,8.5,.78,12.85Z"/><path class="d" d="M1213.36,497.03c.7-12.24,1.36-23.93,2.03-35.62,.05-.88,.18-1.76,.28-2.64,.27-2.28,1.15-4.14,3.04-4.78,2.19-.74,4.39-.62,6.23,1.35,1.08,1.15,1.38,2.69,1.32,4.35-.15,3.9-.29,7.8-.51,11.7-.49,8.68-1.02,17.35-1.56,26.02-.14,2.3-.26,4.62-.63,6.87-.46,2.79-2.03,4.23-4.37,4.33-.73,.03-1.48-.04-2.2-.19-2.3-.49-3.64-2.23-3.81-5.04-.08-1.23,.03-2.48,.07-3.72,.03-1.06,.09-2.13,.11-2.64Z"/><path class="d" d="M1269.42,392.65c-.19,.85-.37,2.46-.88,3.9-2.39,6.73-9.06,7.92-12.92,2.26-2.56-3.76-3.07-8.03-1.31-12.47,2.42-6.09,8.69-7.16,12.5-2.17,1.66,2.18,2.48,4.79,2.61,8.49Z"/><path class="d" d="M1238.69,390.96c0,3.97-1.02,6.83-3.14,9.06-3.67,3.87-8.81,2.91-11.4-2.09-2.06-3.97-1.67-9.83,.92-13.43,2.11-2.94,4.8-4.23,7.91-3.17,3.08,1.04,4.88,3.8,5.54,7.57,.15,.86,.15,1.76,.18,2.06Z"/><path class="d" d="M280.17,463.01c.49-1.31,.85-2.28,1.17-3.14-1.15-3.51-2.07-7.09-3.47-10.37-2.01-4.74-.17-12.32,4.16-15.15,1.39-.91,2.95-1.74,4.49-1.98,4.02-.62,8.84,2.82,10.1,7.5,.6,2.23,.63,5.02,.09,7.27-1.02,4.22-2.65,8.23-4.05,12.4,.39,1.06,.8,2.17,1.26,3.44,1.85,.36,3.74,.69,5.6,1.11,3.65,.82,5.15,2.62,5.59,6.93,.32,3.17,.58,6.35,.67,9.54,.06,2.18-.87,3.2-2.69,3.41-.88,.1-1.76,.06-2.65,.06-8.97,0-17.94,0-26.92,0-.74,0-1.47,.03-2.21-.04-2.16-.2-3.03-1.1-2.97-3.59,.09-3.36,.35-6.73,.66-10.07,.32-3.43,2.12-5.37,4.82-6.07,2-.52,4.05-.81,6.31-1.25Z"/><path class="d" d="M293.92,431.94c1.8-4.23,4.96-5.63,8.7-5.23,3.57,.38,5.91,3.22,7.13,6.98,.58,1.8,.41,4.28-.07,6.21-.92,3.72-2.31,7.26-3.5,10.84,.42,2.13,1.3,3.56,3.24,3.68,1.03,.06,2.07,.15,3.07,.39,2.84,.68,4.43,2.63,4.77,6.08,.27,2.82,.39,5.67,.44,8.51,.03,2.02-.7,2.92-2.34,3.16-.87,.13-1.76,.14-2.65,.13-1.61-.02-3.22-.1-4.96-.15-.36-1.34-.72-2.48-.96-3.65-.76-3.78-2.95-5.57-5.92-6.24-1.01-.23-2.06-.2-3.07-.39-2.49-.47-3.38-2.06-2.61-4.81,.8-2.85,1.64-5.7,2.62-8.46,2.14-6,1.5-10.41-2.34-14.9-.31-.37-.74-.59-1.05-.96-.19-.23-.27-.62-.5-1.19Z"/><path class="d" d="M278.75,433.24c-.28,.67-.45,1.59-.93,2.16-1.43,1.71-1.94,3.79-2.39,6.1-.5,2.58-.37,4.77,.59,7.15,1.15,2.85,2.03,5.86,2.94,8.85,.6,1.98-.36,3.83-2.16,4.31-1,.26-2.03,.45-3.05,.55-3.24,.32-5.53,2.14-6.64,5.92-.14,.48-.38,.93-.66,1.57h-4.77c-1.1-3.88-.57-7.54,.08-11.12,.33-1.84,1.67-2.89,3.18-3.32,1.56-.44,3.15-.73,4.66-1.07,.69-1.13,1.14-2.14,.64-3.5-.83-2.26-1.64-4.54-2.32-6.87-1.09-3.72-.38-7.05,2.03-9.65,2.31-2.49,4.96-3.79,8.06-2.03,.24,.14,.39,.5,.73,.96Z"/><path class="d" d="M1378.15,191.01c-1.36,.87-2.34,1.03-3.34-.38-2.24-3.18-2.86-3.21-5.15-.7-1.7,1.86-3.27,1.31-3.78-1.36-.1-.51,0-1.09-.11-1.59-.44-1.87-1.65-2.7-3.36-2.31-.57,.13-1.13,.49-1.7,.54-1.1,.09-2.26-1.68-1.94-2.93,.17-.67,.61-1.23,.8-1.89,.52-1.83-.15-3.47-1.68-4.23-.13-.07-.29-.07-.43-.1-1.25-.22-2.3-.71-2.43-2.51-.11-1.55,.94-2,1.71-2.81,1.55-1.64,1.62-3.45-.02-5.38-1.19-1.4-1.37-2.59-.37-4.36,.42-.11,.97-.3,1.54-.41,2.81-.54,3.56-1.65,2.77-4.88-.5-2.01,.06-3.02,1.66-3.89,.93,.46,1.98,.99,3.03,1.52,1.48-.54,2.81-1.23,2.85-3.49,.02-1.19,.51-2.02,1.49-2.33,1.19-.37,1.98,.26,2.49,1.53,.13,.32,.28,.64,.49,.88,1.15,1.33,2.61,1.36,3.93,.06,.45-.44,.76-1.1,1.24-1.48,.98-.79,2.57-.08,2.89,1.28,.16,.67,.08,1.42,.21,2.1,.37,1.96,1.58,2.99,3.2,2.7,.57-.1,1.1-.54,1.67-.65,1.1-.2,2.36,1.36,2.21,2.66-.04,.34-.19,.67-.28,1-1.02,3.94-.82,4.44,2.25,5.68,.28,.11,.58,.15,.84,.32,.93,.6,1.26,2.83,.53,3.75-.3,.37-.76,.54-1.1,.88-1.73,1.72-1.88,3.37-.49,5.36,2.17,3.11,1.89,4.12-1.38,4.98-2.12,.56-2.84,1.9-2.42,4.51,.08,.52,.3,1.02,.34,1.54,.11,1.43-1.12,2.82-2.26,2.51-.56-.15-1.06-.62-1.62-.83-1.66-.61-2.94,.03-3.59,1.88-.33,.96-.49,2-.67,2.81Zm.06-21.13c.1-3.49-2.04-6.25-4.82-6.25-2.58,0-4.78,2.55-4.9,5.68-.13,3.36,2.11,6.24,4.86,6.25,2.61,.01,4.76-2.51,4.85-5.68Zm-7.46,9.58c-.06-1.78-1.33-3.25-2.85-3.29-1.78-.04-3.07,1.51-2.98,3.6,.07,1.79,1.36,3.36,2.8,3.4,1.58,.04,3.1-1.81,3.03-3.7Zm8-23.28c-1.66,.15-2.96,2.03-2.73,3.96,.22,1.82,1.51,3.12,3.04,3.04,1.71-.09,2.87-1.79,2.66-3.93-.18-1.89-1.45-3.2-2.97-3.07Zm5.85,20.14c-.03-1.84-1.21-3.28-2.75-3.37-1.75-.1-3.03,1.43-2.98,3.55,.04,1.8,1.28,3.38,2.7,3.45,1.57,.08,3.06-1.7,3.03-3.63Zm-16.96-13.21c-.07-1.88-1.35-3.38-2.87-3.34-1.69,.04-3.05,1.9-2.85,3.92,.18,1.85,1.5,3.11,3.12,2.99,1.61-.12,2.67-1.58,2.6-3.57Z"/><path class="d" d="M1349.25,201.88c-.54-.39-1.32-.82-1.97-1.45-1.75-1.69-3.47-1.68-5.21-.05-.23,.22-.44,.48-.66,.7-.23,.22-.45,.45-.71,.61-.92,.59-2.26,0-2.55-1.18-.2-.84-.16-1.76-.36-2.6-.47-2.05-1.53-3.38-3.35-3.67-.72-.12-1.47-.15-2.16-.42-.93-.35-1.44-2.05-1-3.11,.13-.31,.3-.61,.5-.87,1.89-2.53,1.88-5.03-.02-7.54-.29-.38-.51-.87-.68-1.34-.31-.88,.22-2.35,.98-2.64,.55-.21,1.14-.27,1.72-.37,2.17-.38,3.43-1.82,3.62-4.52,.04-.53-.01-1.08,.09-1.59,.34-1.76,1.77-2.53,3.05-1.65,.38,.26,.69,.67,1.04,.98,1.77,1.57,3.52,1.49,5.25-.12,.46-.43,.9-.92,1.41-1.23,.88-.54,2.19,.2,2.48,1.38,.13,.5,.11,1.05,.2,1.56,.58,3.26,1.23,4.01,3.98,4.6,.43,.09,.89,.05,1.3,.19,1.16,.39,1.79,2.17,1.22,3.4-.14,.31-.34,.57-.51,.86-1.98,3.54-1.98,3.93,.07,7.41,.17,.29,.4,.53,.55,.83,.62,1.25,.04,2.98-1.14,3.42-.14,.05-.29,.08-.43,.08-3.04,.03-4.62,1.82-4.65,5.55,0,1.42-.67,2.28-2.08,2.79Zm3.31-16.2c-.04-5.55-3.47-9.75-8.04-9.78-5.24-.04-8.35,4.62-8.41,9.97-.06,5.6,3.85,9.93,8.57,9.75,4.59-.17,7.93-4.38,7.88-9.95Z"/><path class="d" d="M1194.37,193.73c0,8.9,0,17.79,0,26.69,0,1.07,.03,2.14-.02,3.2-.15,3.08-.96,4.12-3.45,4.43-.88,.11-1.77,.09-2.65,.09-10.47,0-20.94,0-31.41,0-1.03,0-2.07,0-3.09-.17-1.83-.3-2.84-1.6-3.07-3.88-.1-1.05-.07-2.13-.07-3.2,0-18.15,.08-36.3-.05-54.45-.05-6.62,1.65-7.58,6.11-7.52,10.62,.14,21.23,.04,31.85,.05,.59,0,1.18-.02,1.77,.02,3.01,.21,3.99,1.29,4.04,4.85,.08,5.69,.04,11.39,.05,17.08,0,4.27,0,8.54,0,12.81Zm-14.96-4.37c-2.64,0-5.13,.02-7.63,0-2.63-.02-5.27-.09-7.77-.13-.65-.95-1.06-1.7-1.6-2.27-.42-.44-.99-.8-1.53-.94-1.65-.41-3.23,1.67-2.74,3.68,.41,1.69,1.61,3.39,1.45,4.93-.25,2.39,1.65,2.73,2.01,4.36,.21,.97,.5,1.91,.75,2.86-.85,.58-1.47,1-2.13,1.45,3.87,.79,4.09,1.06,4.36,5.54-1.5,.26-3.01,.52-4.53,.78l.03,.37c1.89,.13,3.78,.26,5.85,.4,.64,1.45,1.25,2.85,1.86,4.24,.55,1.26,1.01,2.58,1.66,3.76,1.13,2.05,3.21,2,4.38-.08,.5-.87,.86-1.86,1.27-2.8,.74-1.71,1.47-3.44,2.3-5.37h9.79c-2.79-1.44-5.82-.11-8.74-1.57,.02-2.04,.68-3.48,2.06-5.01h5.65c-1.44-.68-2.89-.84-4.32-1.13-.39-.08-.74-.53-1.2-.88,.82-1.71,1.46-3.05,1.9-3.96,1.56-.85,2.95-.04,4.23-1.2-1.27-.43-2.21-.75-3.17-1.08q1.04-3.65,2.95-5.53c-.05-.98-.29-1.87-.08-2.56,.51-1.66,1.24-3.22,1.86-4.83,.37-.97,.79-1.92,1.05-2.93,.32-1.26,.15-2.48-.74-3.39-.89-.9-2.04-1.19-2.84-.3-1.62,1.79-3.51,1.57-5.42,1.61-1.43,.03-2.85,.1-4.28,.15,1.16,.63,2.31,.63,3.46,.71,1.26,.08,2.61-.32,3.99,.96-1.04,3.42-2.3,6.57-4.13,10.15Zm12.62-18.68c.27-.24,.46-.33,.46-.43,0-.15-.1-.33-.19-.46-1.6-2.06-3.2-4.11-4.81-6.15-.09-.12-.27-.21-.39-.19-.11,.01-.21,.18-.43,.39,1.8,2.29,3.59,4.58,5.37,6.84Zm-4.77,48.5h-5.99c1.93,.92,3.89,.61,5.99,0Zm-27.67-48.1l-.07,.4h5.47v-.4h-5.41Zm5.32-4.27h-5.55c1.77,.82,3.57,.58,5.55,0Z"/><path class="d" d="M108.91,383.37c1.37,.82,2.41,1.44,3.62,2.16,3.36-2.16,6.7-4.42,10.13-6.45,1.42-.84,1.46-2.57,2.25-3.79,1.35-2.08,3.52-2.24,4.96-.35,1.65,2.16,.79,5.67-1.57,6.33-.28,.08-.58,.13-.87,.14-1.02,.04-2.18-.32-3.03,.16-2.94,1.64-5.78,3.53-8.63,5.39-.74,.48-1.38,1.17-2.33,1.99,.62,.72,.94,1.36,1.39,1.55,1.8,.78,3.64,1.41,5.4,2.08,1.03-.62,1.91-1.32,2.88-1.68,2.15-.8,4.16,.43,5.06,2.93,.77,2.15,.11,4.75-1.55,6.09-1.76,1.42-4.18,1.03-5.57-1.04-.64-.95-1.07-2.1-1.66-3.3-2.05-.77-4.14-1.56-6.39-2.4-2.11,2.17-4.4,3.73-7.24,1.97-2.49,2.24-4.46,4.86-6.69,7.57,.05,1.07,.23,2.29,.14,3.49-.24,3.19-2.21,5.27-4.71,5.16-2.28-.1-4.2-2.33-4.36-5.08-.17-2.72,1.38-5.22,3.73-5.77,.99-.23,2.04-.04,3.31-.04,1.93-2.28,3.96-4.58,5.89-7,.9-1.13,.47-2.94-.77-3.42-1.4-.54-2.85-.91-4.28-1.33-3.57-1.06-7.14-2.1-10.85-3.19-.96,.8-1.87,1.68-2.87,2.37-2.95,2.03-6.32,.93-8.04-2.54-1.68-3.38-.73-7.63,2.16-9.69,2.82-2.01,6.31-.92,8.02,2.63,.58,1.21,.89,2.6,1.42,4.21,5.02,1.48,10.16,3,15.45,4.56,.99-1.06,1.95-2.1,2.96-3.18-.2-1.53-.44-2.91-.56-4.31-.16-1.84-.51-3.48-1.98-4.48-.37-.25-.67-.69-.93-1.11-1.03-1.64-.99-3.85,.07-5.43,1.05-1.57,2.83-2.12,4.39-1.33,1.54,.77,2.46,2.72,2.22,4.74-.04,.35-.04,.79-.21,1.02-2.44,3.28-.67,6.69-.36,10.4Z"/><path class="d" d="M709.33,262.39c6.97,1.14,13.83-.13,20.65-.83,.38,1.43-.4,1.85-.87,2.45-1.73,2.19-3.54,4.28-5.17,6.57-.95,1.33-1.78,2.87-2.36,4.48-1.64,4.55-.19,8.54,3.68,10.29,2.79,1.26,5.73,1.72,8.69,1.53,3.71-.24,7.24-1.25,10.57-3.42,3.37-2.18,6.89-4.03,10.37-5.95,1.2-.67,2.46-1.2,3.72-1.68,2.11-.8,4.08-.52,5.8,1.31,.66,.71,1.37,1.35,2.01,2.09,5.01,5.82,10.63,10.71,16.38,15.37,6.97,5.65,13.99,11.22,20.98,16.84,.98,.79,1.95,1.61,2.86,2.51,1.06,1.06,1.64,2.5,1.82,4.14,.39,3.55-2.04,6.4-4.9,5.51-1.38-.43-2.68-1.43-3.89-2.4-9.54-7.73-19.05-15.52-28.57-23.28-1.1-.89-2.2-1.81-3.39-2.48-1.83-1.03-3.92-.17-5.01,1.86-.97,1.82-.88,4.35,.44,5.9,1.05,1.22,2.28,2.24,3.5,3.23,9.39,7.69,18.79,15.35,28.19,23.02,.73,.6,1.49,1.16,2.19,1.8,1.44,1.32,2.51,3.02,3.14,5.06,1.33,4.31-.81,7.59-4.59,7-2.37-.37-4.48-1.54-6.47-3.2-8.62-7.16-17.28-14.24-25.93-21.33-.97-.8-1.93-1.65-2.98-2.27-1.91-1.12-3.85-.47-5.09,1.55-1.21,1.95-1.11,4.52,.4,6.31,.83,.99,1.84,1.76,2.81,2.57,8.39,6.92,16.8,13.83,25.19,20.75,.85,.7,1.71,1.4,2.52,2.16,1.08,1.02,1.78,2.35,2.05,3.99,.5,3.1-1.21,5.71-3.8,5.84-1.38,.07-2.65-.37-3.73-1.38-4.3-4-9.17-7.06-12.92-12-1.44-1.89-3.57-3.02-5.77-4.81-.25-9.37-4.56-15.13-12.91-16.51-.61-4.89-1.58-9.48-5.15-12.51-3.48-2.97-7.29-3.51-11.28-2.22-.77-1.58-1.31-2.84-1.96-4.01-3.65-6.47-10.15-8.66-15.97-5.17-1.81,1.09-3.48,2.67-5,4.3-2.3,2.47-4.41,5.18-6.72,7.93-2.11-2.19-4.02-4.35-6.09-6.26-2.1-1.93-4.35-3.6-6.51-5.36,1.23-3.89,15.24-32.73,19.1-39.26Z"/><path class="d" d="M730.85,276.38c.87-1.32,1.24-2.06,1.74-2.61,5.56-6.15,11.67-11.35,18.4-15.5,3.8-2.34,7.72-3.19,11.96-2.43,6.11,1.09,12.26,1.86,18.36,3.04,8.25,1.59,16.42,1.1,24.58-.79,1-.23,2.01-.34,3.14-.53,2.36,4.02,3.63,8.57,5.37,12.83,1.76,4.29,3.47,8.62,5.1,13,1.61,4.34,3.66,8.46,4.89,13.38-2.22,1.62-4.73,2.12-6.88,3.53-2.19,1.43-4.37,2.86-6.57,4.31-.64-.35-1.22-.54-1.69-.92-8.57-6.89-17.2-13.69-25.66-20.77-3.86-3.23-7.38-7.04-11.04-10.6-1.49-1.45-2.89-3.04-4.46-4.35-3.05-2.54-6.44-3.57-10.06-2.27-2.95,1.06-5.89,2.26-8.72,3.72-3.1,1.61-6.09,3.55-9.1,5.41-2.71,1.67-5.53,2.2-9.36,1.57Z"/><path class="d" d="M815.65,249.14c7.4-4.46,14.77-8.42,22.22-12.73,.52,.77,1.08,1.34,1.36,2.07,5.8,14.75,11.58,29.51,17.34,44.27,.3,.78,.43,1.66,.63,2.43-3.7,3.06-19.24,11.75-22.35,12.53-1.95-3.31-16.26-39.4-19.21-48.58Z"/><path class="d" d="M680,300.91c-7.25-5.19-14.18-10.16-21.26-15.23,.43-1.27,.67-2.28,1.1-3.15,6.67-13.59,13.36-27.17,20.07-40.74,.44-.9,1-1.72,1.48-2.53,3.03,1.11,17.59,11.33,21.31,14.91,.04,.17,.11,.34,.11,.51,0,.17-.03,.36-.1,.51-7.1,14.52-14.2,29.04-21.32,43.55-.29,.6-.71,1.12-1.38,2.16Z"/><path class="d" d="M725.8,351.61c-2.81-2.81-5.17-5.18-7.73-7.75,.41-.92,.67-1.71,1.09-2.37,3.55-5.68,7.15-11.31,10.67-17.02,1.38-2.24,3.12-3.74,5.32-4.5,2.8-.97,4.97,1.05,5.01,4.61,.03,2.38-.42,4.68-1.54,6.58-4,6.8-8.27,13.35-12.82,20.45Z"/><path class="d" d="M738.89,364.23c-2.16-1.47-4.06-3.64-6.21-5.92,.31-.8,.51-1.64,.91-2.29,3.45-5.55,6.9-11.1,10.46-16.55,.89-1.36,2.06-2.55,3.29-3.44,1.34-.97,2.84-.77,4.15,.43,1.43,1.32,2.01,3.1,1.57,5.18-.25,1.18-.69,2.39-1.29,3.35-3.9,6.25-7.87,12.44-11.84,18.63-.16,.24-.51,.31-1.04,.61Z"/><path class="d" d="M711.55,336.89c-2.78-2.91-5.12-5.28-6.43-9.13,.5-1.14,.93-2.47,1.59-3.6,2.65-4.52,5.79-8.52,9.21-12.2,.76-.81,1.65-1.56,2.58-1.98,3.19-1.42,6.09,1.52,5.5,5.55-.15,1.02-.45,2.12-.95,2.94-3.68,5.98-7.42,11.9-11.5,18.41Z"/><path class="d" d="M753.48,375.95c-3.14-.81-5.05-2.64-7.14-4.75,.44-.99,.74-1.94,1.23-2.73,2.8-4.52,5.64-9.01,8.49-13.49,.44-.7,.89-1.44,1.46-1.96,1.01-.91,2.15-1.02,3.31-.32,1.04,.63,1.58,1.96,1.36,3.57-.09,.69-.25,1.38-.48,2.02-1.94,5.34-4.11,10.53-6.89,15.33-.5,.86-.99,1.73-1.34,2.34Z"/><path class="d" d="M769.68,361.5c1.79,1.57,3.04,2.49,4.11,3.64,1.22,1.3,1.39,3.27,.61,4.8-.71,1.41-2.34,1.91-3.93,1.17-.41-.19-.8-.46-1.15-.77-.59-.51-1.13-1.09-1.72-1.67-.11-2.57,1.28-4.28,2.08-7.17Z"/><path class="d" d="M231.45,139.4c.18,22.97-15.91,42.54-35.61,42.38-19.26-.15-35.35-19.49-35.14-43.02,.22-23.58,16.03-42.57,35.66-42.39,20.39,.18,35.54,20.63,35.08,43.03Zm-32.66,13.56c2.16,.4,4.01,.83,5.87,1.07,1.96,.26,3.86,1.7,6.03,.6,1.11-3.9,1.9-7.75,1.42-11.79-3.68-1.11-9.83-1.05-13.15,.12-.64,3.03-.36,6.14-.17,10Zm22.68,8.14c4.12-6.21,6.04-13,5.34-18.53-2.82-.82-5.67-.69-8.6-.08-1.07,2.34-.9,4.88-1.22,7.28-.35,2.57-1.26,5.04-1.04,8.05,1.74,1.03,3.54,2.1,5.52,3.27Zm-41.45-18.34c0,1.65-.09,3.06,.02,4.44,.12,1.41,.42,2.79,.67,4.18,.25,1.36,.27,2.87,1.86,3.77,3.36-1.04,7.21-.83,10.97-2.7,0-2.48,.03-4.77-.02-7.06-.02-.85-.21-1.7-.32-2.46-3.31-1.08-8.63-1.17-13.19-.17Zm-14.78-.38c-.4,6.42,1.73,13.45,5.48,18.47,2.03-.69,3.91-1.87,5.83-3.49-.44-2.53-.78-4.95-1.31-7.31-.56-2.5,.12-5.36-1.48-7.64-2.76-.52-5.5-.45-8.52-.02Zm52.73-6.87c3.14,.66,6.02,.66,9.11,.02,.5-4.03-.64-7.5-1.79-10.89-.92-2.72-1.71-5.66-4.04-7.4-1.88,1.17-3.91,1.77-5.51,3.74,.74,4.84,1.48,9.67,2.23,14.53Zm-5.8-.16c.06-6.56-.4-9.04-2.31-12.43-3.56,1-7.32,1.26-11,2.54-.29,3.55-.67,6.81,.27,9.95,3.88,.75,9.18,.73,13.04-.06Zm-35.75-14.18c-1.3-2.31-3.64-2.79-5.64-3.86-3.85,5.1-6.03,12.41-5.45,18.28,2.97,.43,5.96,.85,8.99-.27,.71-4.78,1.39-9.3,2.11-14.15Zm3.64,14c3.72,1.12,9.92,1.07,13.25-.12,.3-3.22,.59-6.51-.28-9.87-3.71-.76-7.29-1.5-11.06-2.28-1.65,4.01-2.27,8.03-1.91,12.27Zm28.31-18.83c-.31-1.05-.42-1.94-.79-2.64-1.8-3.42-3.65-6.82-5.54-10.17-.57-1-1.29-2.23-2.44-1.89-1.32,.39-.97,1.98-.99,3.14-.05,3.53-.05,7.07,.01,10.61,.02,.99,.35,1.97,.55,3.01,3.31,.33,6.21-.39,9.19-2.05Zm-9.2,60.06c1.16,.5,1.98-.25,2.57-1.29,1.98-3.49,3.94-7,5.81-10.57,.42-.8,.46-1.88,.71-2.97-3.13-1.42-6.05-2.13-9.09-1.58-.79,4.69-.77,12.38,0,16.42Zm-6.15-16.61c-3.29-.04-6.26,.18-9.24,2.11,1.79,5.57,4.3,10.23,7.65,14.23,.32,.39,1.03,.31,1.56,.45,.75-4.24,.78-11.75,.03-16.79Zm.17-57.92c-1.62-.61-2.2,.55-2.86,1.44-3.14,4.17-5.4,9.03-6.16,13.29,2.82,1.27,5.67,2.29,8.73,1.74,.81-3.77,.93-10.74,.29-16.47Zm24.48,64.53c-1.12-1.61-2.33-2.3-3.77-2.3-2.75,4.71-3.03,5.45-3.16,8.65,2.68-1.71,5.16-3.33,6.93-6.34Zm-39.62-52.09c2.58-3.9,3.14-5.33,3.35-8.33-3.79,1.72-4.94,2.79-6.65,6.39,1.13,.67,2.24,1.32,3.3,1.95Zm39.58-2.86c-1.64-2.22-3.61-3.95-5.8-5.29-.38-.23-.94-.03-1.86-.03,1.53,2.97,2.28,5.81,3.86,8.01,2.37-.82,2.35-.86,3.8-2.7Zm-43.21,54.38c3.01,4.6,5.07,6.19,7.9,6.1-1.59-2.55-2.21-5.48-4.07-8-1.19,.59-2.34,1.16-3.83,1.9Z"/><path class="d" d="M1378.22,169.88c-.09,3.17-2.24,5.69-4.85,5.68-2.75-.01-4.99-2.89-4.86-6.25,.12-3.13,2.31-5.68,4.9-5.68,2.78,0,4.92,2.76,4.82,6.25Z"/><path class="d" d="M1370.76,179.46c.06,1.9-1.45,3.75-3.03,3.7-1.43-.04-2.72-1.61-2.8-3.4-.09-2.09,1.2-3.64,2.98-3.6,1.51,.04,2.79,1.51,2.85,3.29Z"/><path class="d" d="M1378.76,156.18c1.52-.13,2.79,1.18,2.97,3.07,.21,2.14-.95,3.85-2.66,3.93-1.53,.08-2.82-1.21-3.04-3.04-.23-1.93,1.06-3.82,2.73-3.96Z"/><path class="d" d="M1384.6,176.32c.03,1.93-1.46,3.71-3.03,3.63-1.42-.07-2.66-1.66-2.7-3.45-.05-2.12,1.24-3.65,2.98-3.55,1.54,.08,2.72,1.53,2.75,3.37Z"/><path class="d" d="M1367.64,163.12c.07,1.98-1,3.45-2.6,3.57-1.62,.12-2.94-1.14-3.12-2.99-.2-2.02,1.16-3.88,2.85-3.92,1.52-.03,2.8,1.46,2.87,3.34Z"/><path class="d" d="M1352.56,185.67c.04,5.57-3.29,9.78-7.88,9.95-4.73,.17-8.64-4.15-8.57-9.75,.06-5.35,3.18-10.01,8.41-9.97,4.58,.03,8,4.22,8.04,9.78Z"/><path class="d" d="M1179.41,189.36c1.83-3.57,3.09-6.72,4.13-10.15-1.39-1.28-2.74-.88-3.99-.96-1.15-.08-2.31-.08-3.46-.71,1.43-.05,2.85-.12,4.28-.15,1.9-.04,3.79,.18,5.42-1.61,.8-.89,1.95-.6,2.84,.3,.9,.92,1.06,2.13,.74,3.39-.26,1.01-.68,1.97-1.05,2.93-.62,1.61-1.35,3.17-1.86,4.83-.21,.69,.03,1.58,.08,2.56q-1.9,1.88-2.95,5.53c.96,.33,1.9,.65,3.17,1.08-1.28,1.16-2.67,.35-4.23,1.2-.43,.91-1.07,2.24-1.9,3.96,.47,.36,.81,.81,1.2,.88,1.43,.28,2.88,.44,4.32,1.13h-5.65c-1.38,1.52-2.04,2.97-2.06,5.01,2.91,1.46,5.95,.13,8.74,1.57h-9.79c-.83,1.94-1.56,3.66-2.3,5.37-.41,.94-.78,1.93-1.27,2.8-1.17,2.07-3.25,2.12-4.38,.08-.65-1.18-1.11-2.5-1.66-3.76-.61-1.4-1.22-2.79-1.86-4.24-2.07-.14-3.96-.27-5.85-.4l-.03-.37c1.51-.26,3.03-.52,4.53-.78-.28-4.49-.49-4.75-4.36-5.54,.66-.45,1.28-.87,2.13-1.45-.25-.95-.54-1.89-.75-2.86-.36-1.62-2.26-1.97-2.01-4.36,.16-1.54-1.04-3.24-1.45-4.93-.49-2.02,1.09-4.1,2.74-3.68,.55,.14,1.11,.5,1.53,.94,.54,.57,.95,1.32,1.6,2.27,2.5,.04,5.14,.11,7.77,.13,2.49,.02,4.99,0,7.63,0Zm-.86,1.72c-3.6-1.47-6.98-.65-10.3-.79-1.12-.05-2.37-.21-3.22,1.05,.97,4.45,.98,4.57,4.11,4.57,2.61,0,5.26,.46,7.9-.44,.38-.8,.79-1.54,1.1-2.33,.18-.46,.21-1.01,.41-2.06Zm-11.07,6.5c1.18,4.69,1.96,5.52,4.83,5.12,.82-.11,1.8-.52,2.33-1.21,.75-.98,1.49-2.25,.8-4.11-2.49-.41-5.07-.52-7.96,.2Zm3.94,10.71c1.31-1.2,1.9-2.41,1.74-4.08-1.19-.69-2.22-.95-3.35,.51,.5,1.11,1.02,2.26,1.61,3.56Z"/><path class="d" d="M1192.03,170.68c-1.77-2.26-3.57-4.54-5.37-6.84,.22-.21,.32-.38,.43-.39,.13-.01,.3,.08,.39,.19,1.61,2.04,3.21,4.09,4.81,6.15,.1,.12,.2,.31,.19,.46,0,.1-.2,.19-.46,.43Z"/><path class="d" d="M1187.26,219.18c-2.1,.61-4.06,.92-5.99,0h5.99Z"/><path class="d" d="M1159.59,171.08h5.41v.4h-5.48l.07-.4Z"/><path class="d" d="M1164.91,166.8c-1.98,.58-3.78,.82-5.55,0h5.55Z"/><path class="d" d="M546.93,67.09c-2.62,.08-4.81-2.48-4.81-5.63,0-3.15,2.19-5.75,4.78-5.69,2.4,.06,4.47,2.49,4.6,5.39,.13,3.14-1.95,5.84-4.57,5.92Z"/><path class="d" d="M588.72,61.5c-.02-3.22,2.06-5.76,4.68-5.72,2.62,.05,4.65,2.66,4.56,5.87-.08,2.98-2.02,5.34-4.47,5.43-2.66,.1-4.75-2.35-4.77-5.59Z"/><path class="d" d="M574.7,61.54c-.04,3.24-2.16,5.68-4.83,5.55-2.42-.12-4.46-2.58-4.55-5.48-.09-3.02,2.15-5.8,4.71-5.83,2.63-.03,4.7,2.52,4.67,5.76Z"/><path class="d" d="M221.48,161.1c-1.98-1.17-3.77-2.24-5.52-3.27-.22-3.01,.69-5.48,1.04-8.05,.32-2.4,.15-4.94,1.22-7.28,2.93-.62,5.78-.75,8.6,.08,.69,5.52-1.22,12.32-5.34,18.53Z"/><path class="d" d="M1178.54,191.07c-.2,1.05-.23,1.59-.41,2.06-.31,.79-.71,1.53-1.1,2.33-2.63,.9-5.28,.43-7.9,.44-3.13,0-3.15-.11-4.11-4.57,.85-1.26,2.11-1.1,3.22-1.05,3.32,.14,6.7-.68,10.3,.79Z"/><path class="d" d="M1167.48,197.58c2.89-.72,5.47-.61,7.96-.2,.69,1.86-.05,3.13-.8,4.11-.53,.69-1.51,1.09-2.33,1.21-2.87,.4-3.65-.43-4.83-5.12Z"/><path class="d" d="M1171.41,208.29c-.58-1.3-1.1-2.45-1.61-3.56,1.12-1.46,2.16-1.2,3.35-.51,.16,1.67-.43,2.88-1.74,4.08Z"/></g></g></svg>