<?xml version="1.0" encoding="UTF-8"?><svg xmlns="http://www.w3.org/2000/svg" viewBox="0 0 355.39 323.78"><defs><style>.n{fill:#981a5f;}.o{fill:#49622e;}</style></defs><g id="a"/><g id="b"><g id="c"><path class="o" d="M151.77,164.15l-14.86-.9-5.09-4.89,8.23-9.55c1.16-1.35,1.01-3.38-.34-4.54-1.35-1.16-3.38-1.01-4.54,.34l-8.01,9.28-5.16-4.96,4.38-12.75c.58-1.68-.32-3.51-2-4.09-1.68-.58-3.51,.32-4.09,2l-5.04,14.7c-.41,1.18-.09,2.5,.81,3.37l17.23,16.56c.55,.53,1.27,.85,2.04,.89l16.04,.98c.07,0,.13,0,.2,0,1.69,0,3.11-1.32,3.21-3.02,.11-1.77-1.24-3.3-3.02-3.41Z"/></g><g id="d"><path class="o" d="M161.87,153.92l9.46-22.18c.43-1.01,.32-2.18-.31-3.08l-15.31-22.29c-.69-1-1.88-1.53-3.08-1.37-1.2,.16-2.21,.98-2.61,2.13l-8.91,25.44c-.34,.96-.2,2.03,.38,2.88l14.04,20.59s.05,.07,.07,.1l10.39,15.24c.62,.91,1.63,1.41,2.66,1.41,.62,0,1.26-.18,1.81-.56,1.47-1,1.85-3,.85-4.47l-9.43-13.84Zm-14.15-20.76l6.28-17.92,10.71,15.6-7.15,16.76-9.84-14.44Z"/></g><g id="e"><path class="o" d="M192.34,138.8l3.74,6.79c.59,1.06,1.69,1.66,2.82,1.66,.53,0,1.06-.13,1.55-.4,1.56-.86,2.12-2.82,1.26-4.37l-4.53-8.2,16.55-15.43c1.3-1.21,1.37-3.25,.16-4.55-1.21-1.3-3.25-1.37-4.55-.16l-21.93,20.44,5.93-34.2c.3-1.75-.87-3.42-2.62-3.72-1.75-.3-3.42,.87-3.72,2.62l-10.48,60.45c-.3,1.75,.87,3.42,2.62,3.72,.19,.03,.37,.05,.55,.05,1.54,0,2.9-1.1,3.17-2.67l2.73-15.76,6.73-6.28Z"/></g><g id="f"><path class="o" d="M230.44,150.83l-13.24-6.03,3.14-4.09c1.08-1.41,.81-3.43-.6-4.51-1.41-1.08-3.43-.81-4.51,.6l-18.71,24.43c-1.08,1.41-.81,3.43,.6,4.51,.58,.45,1.27,.66,1.95,.66,.97,0,1.92-.43,2.56-1.26l11.56-15.09,11.75,5.35-7.25,17.28c-.69,1.64,.08,3.53,1.72,4.21,.41,.17,.83,.25,1.24,.25,1.26,0,2.45-.74,2.97-1.97l8.46-20.16c.67-1.6-.05-3.45-1.63-4.18Z"/></g><g id="g"><path class="n" d="M4,251.61c-2.21,0-4,1.8-4,4v64.16c0,2.21,1.8,4,4,4H31.78v-8.01H9.2c-.62,0-1.19-.57-1.19-1.19v-21.73c0-.62,.57-1.19,1.19-1.19H28.1v-8.01H9.2c-.66,0-1.19-.49-1.19-1.1v-21.73c0-.62,.57-1.19,1.19-1.19H31.78v-8.01H4Z"/></g><g id="h"><path class="n" d="M73.36,262.3c-2.26,0-4.1,1.8-4.1,4v48.17h8.1v-14.57c0-.66,.49-1.19,1.1-1.19h13.13c9.5,0,17.23-7.69,17.23-17.14v-2.13c0-9.45-7.73-17.14-17.23-17.14h-18.24Zm18.24,28.4h-13.13c-.61,0-1.1-.53-1.1-1.19v-18.01c0-.66,.49-1.19,1.1-1.19h13.13c5.03,0,9.13,4.1,9.13,9.13v2.13c0,5.03-4.1,9.13-9.13,9.13Z"/></g><g id="i"><path class="n" d="M180.56,277.64l-6.63-3.53c-.27,.52-.56,1.06-.86,1.64-1.21,2.3-2.68,5.11-4.4,7.85-2.63-2.7-6-4.8-10.39-5.6v-10.47h-7.51v10.36c-8.73,1.29-12,7.4-12,11.66,0,1.14,.38,10.21,12,12.09v7.14h7.51v-7.08c3.73-.71,6.96-2.69,9.76-5.3,.72,1.6,1.39,3.3,2.06,5.06l.31,.82,2.13,6.71,7.15-2.27-2.16-6.81-.42-1.11c-.96-2.54-2.13-5.63-3.77-8.65,2.61-3.74,4.7-7.72,6.37-10.9,.29-.56,.58-1.1,.84-1.6Zm-34.28,11.91c0-.9,.92-3.11,4.49-4.01v8.43c-2.87-.74-4.49-2.28-4.49-4.42Zm12,4.37v-8.19c2.35,.74,4.22,2.13,5.81,4-1.78,1.9-3.72,3.42-5.81,4.18Z"/></g><g id="j"><path class="n" d="M228.3,274.46h.38c5.03,0,9.13,4.14,9.13,9.22v23.49h8.1v-23.49c0-9.5-7.73-17.23-17.23-17.23h-.38c-9.45,0-17.14,7.73-17.14,17.23v23.49h8.01v-23.49c0-5.09,4.1-9.22,9.13-9.22Z"/></g><g id="k"><path class="n" d="M287.07,262.92c-9.45,0-17.14,7.73-17.14,17.23v19.75c0,9.45,7.69,17.14,17.14,17.14h.38c9.45,0,17.14-7.69,17.14-17.14v-19.75c0-9.5-7.69-17.23-17.14-17.23h-.38Zm.38,46.11h-.38c-5.03,0-9.13-4.1-9.13-9.13v-19.75c0-5.09,4.1-9.22,9.13-9.22h.38c5.03,0,9.13,4.14,9.13,9.22v19.75c0,5.03-4.1,9.13-9.13,9.13Z"/></g><g id="l"><path class="n" d="M324.02,252.62v8.01h10.49c.62,0,1.19,.57,1.19,1.19v58.96h8.01v-58.96c0-.62,.57-1.19,1.19-1.19h10.49v-8.01h-31.37Z"/></g><g id="m"><path class="o" d="M274.45,109.02c0-26.29-10.35-53.45-28.4-74.52C226.99,12.25,202.39,0,176.78,0s-50.2,12.25-69.27,34.5c-18.05,21.07-28.4,48.23-28.4,74.52,0,52.78,42.08,95.91,94.45,97.61v20.76c0,1.78,1.44,3.22,3.22,3.22s3.22-1.44,3.22-3.22v-20.76c52.37-1.71,94.45-44.83,94.45-97.61Zm-94.45,89.83v-14.59h17.42c1.78,0,3.22-1.44,3.22-3.22s-1.44-3.22-3.22-3.22h-41.27c-1.78,0-3.22,1.44-3.22,3.22s1.44,3.22,3.22,3.22h17.42v14.59c-48.08-1.7-86.67-41.34-86.67-89.83,0-24.46,9.67-49.78,26.53-69.46,17.56-20.5,40.06-31.79,63.36-31.79s45.8,11.29,63.36,31.79c16.86,19.68,26.53,45,26.53,69.46,0,48.49-38.59,88.12-86.67,89.83Z"/></g></g></svg>