<?xml version="1.0" encoding="UTF-8"?><svg xmlns="http://www.w3.org/2000/svg" viewBox="0 0 555.1 698.9"><defs><style>.d{fill:#fff;}.e{fill:#de5151;}.f{fill:#1b6f91;}.g{fill:#38a678;}</style></defs><g id="a"/><g id="b"><g id="c"><g><g><path class="d" d="M65.07,640.76c-5.52-4.96-13.45-7.81-21.86-10.65-6.79-2.37-10.35-3.64-12.95-6.04-2.6-2.23-3.42-4.65-3.44-7.23-.04-5.49,3.45-12.62,14.75-12.7,3.87-.02,11.3,.73,17.65,9.07l10.87-14.44c-11.06-11.21-23.81-12.41-30.59-12.36-23.88,.17-34.41,16.06-34.29,31.88,.08,10.97,5.12,16.9,8.69,19.94,5.53,4.8,12.32,7.33,17.98,9.23,6.15,2.05,12.62,4.1,16.68,7.78,2.92,2.72,4.24,5.78,4.27,9.65,.06,9.04-6.99,14.9-16.51,14.97-7.59,.06-17.46-3.75-22.7-14.2l-13.62,13.18c5.71,8.18,17.42,20.2,37.26,20.06,22.27-.17,37.33-14.64,37.18-35.62-.08-10.97-4.49-18.2-9.37-22.52Z"/><path class="d" d="M199.72,587.65l-24.85,.18-22.79,37.61-23.35-37.27-24.85,.19,37.38,58.14,.36,49.21,20.97-.16-.36-49.21,37.49-58.69Z"/><path class="d" d="M290.71,676.54l-33.23,.25-.66-89.56-20.98,.16,.79,107.62,54.22-.4-.14-18.07Z"/><path class="d" d="M379.59,586.33l-16.46,.12-45.52,107.96,22.76-.16,9.35-22.66,43.4-.32,9.69,22.52,22.59-.17-45.81-107.29Zm-23.38,68.1l15.04-38.83,15.61,38.61-30.65,.22Z"/><path class="d" d="M555.1,692.63l-.79-107.62-20.98,.16,.53,71.79-66.04-71.31-14.52,.1,.8,107.63,20.97-.16-.53-71.97,66.04,71.49,14.52-.11Z"/></g><g><path class="g" d="M504.13,134.3l-96,49-135.42,52.11-135.42-52.11-95.94-49.14c2.83-5.23,7.04-9.7,12.37-12.78L256.36,4.38c10.12-5.84,22.58-5.84,32.69,0l202.65,117c5.37,3.1,9.6,7.63,12.43,12.92Z"/><path class="e" d="M272.71,417.86v115.51c-5.65,0-11.29-1.46-16.35-4.38L53.72,411.99c-10.12-5.84-16.35-16.63-16.35-28.31V149.69c0-5.53,1.44-10.83,3.98-15.53l95.94,49.14,105.3,104.27,30.12,130.29Z"/><path class="f" d="M508.04,149.69v233.99c0,11.68-6.23,22.47-16.34,28.31l-202.65,117c-5.06,2.92-10.7,4.38-16.34,4.38v-115.51l30.11-130.29,105.31-104.27,96-49c2.49,4.66,3.91,9.91,3.91,15.39Z"/></g></g></g></g></svg>